<svg width="115" height="130" viewBox="0 0 115 130" fill="none" xmlns="http://www.w3.org/2000/svg">
<path d="M18.2227 118.686C28.3424 125.813 40.6812 130 53.9991 130C67.317 130 79.6558 125.813 89.7755 118.686H18.2227V118.686Z" fill="#2A428C"/>
<path d="M48.4594 118.686H18.2227C26.7108 124.664 36.7609 128.572 47.6398 129.678C42.6716 127.792 43.0753 119.907 48.4594 118.686Z" fill="#1C2E7A"/>
<path d="M76.5172 78.3361H14.5955C12.4934 78.3361 10.7734 80.056 10.7734 82.1581V84.915H80.339V82.1581C80.3392 80.056 78.6193 78.3361 76.5172 78.3361Z" fill="#3C58A0"/>
<path d="M37.5915 78.3361H14.5955C12.4934 78.3361 10.7734 80.056 10.7734 82.1581V84.915H36.8793C37.3128 84.7386 37.5915 84.672 37.5915 84.672C33.7195 81.6663 37.5915 78.3361 37.5915 78.3361Z" fill="#2A428C"/>
<path d="M29.75 39.729L50.8794 14.5185L79.9385 38.8735L58.8091 64.084L29.75 39.729Z" fill="#FFB332"/>
<path d="M62.5978 24.9484C62.8517 25.0378 63.1097 25.0055 63.3255 24.8953L50.9201 14.4966L29.7773 39.7191L41.8219 49.8155C41.9933 49.5568 42.036 49.215 41.8867 48.9027C40.3208 45.626 42.3635 43.4978 42.3635 43.4978C42.3635 43.4978 53.1225 31.2257 56.3388 26.9093C58.4317 24.1009 61.0348 24.3982 62.5978 24.9484Z" fill="#FF9100"/>
<path d="M54.8594 9.73071C58.0515 12.4064 80.7842 31.4623 83.9974 34.1555C83.9974 34.1555 82.0911 30.384 84.8734 27.0646C79.3352 22.4225 64.9522 10.366 61.6882 7.62988C58.9059 10.9492 54.8594 9.73071 54.8594 9.73071Z" fill="#3C58A0"/>
<path d="M68.0722 20.0045C67.9625 17.4307 69.7418 16.642 70.8303 16.4003C71.1363 16.3323 71.3676 16.1111 71.4743 15.8331C67.1446 12.2038 63.2091 8.905 61.6882 7.62988C58.9059 10.9489 54.8594 9.73071 54.8594 9.73071C56.3272 10.9611 61.9276 15.6556 67.8617 20.6299C68.0021 20.4598 68.0823 20.2402 68.0722 20.0045Z" fill="#2A428C"/>
<path d="M25.8447 44.3448C29.0368 47.0205 51.7696 66.0764 54.9828 68.7699C54.9828 68.7699 50.9363 67.5514 48.154 70.8707C42.6158 66.2283 28.2327 54.1718 24.9688 51.436C27.7511 48.1166 25.8447 44.3448 25.8447 44.3448Z" fill="#3C58A0"/>
<path d="M25.8447 44.3448C25.8447 44.3448 27.7511 48.1164 24.9688 51.4357C26.4371 52.6666 30.1561 55.7838 34.3074 59.2639C34.538 59.0697 34.6703 58.7698 34.6289 58.4504C34.3095 55.9875 36.1754 55.3294 37.3655 55.1582C37.6956 55.1107 37.9566 54.8883 38.0769 54.5986C32.4349 49.8691 27.2488 45.522 25.8447 44.3448Z" fill="#2A428C"/>
<path d="M80.5522 51.8926L77.2882 51.6819C76.3709 52.7762 72.5529 57.331 71.0195 59.1602L71.7972 62.3371C72.9058 66.8657 76.2706 70.4903 80.6921 71.9693C83.9175 73.0481 87.7055 75.1423 91.867 78.1344C92.0128 77.6893 92.2413 77.2635 92.5605 76.8826L98.5003 69.7963C98.8195 69.4155 99.1988 69.1161 99.6117 68.895C95.9387 65.3197 93.2153 61.9557 91.5898 58.9685C89.3612 54.8732 85.2048 52.1933 80.5522 51.8926Z" fill="#3C58A0"/>
<path d="M85.3155 65.5878C84.1859 65.1752 83.3101 64.5829 82.6319 63.9263C80.7315 62.0867 80.5969 59.0762 82.2122 56.9819L85.2327 53.0657C83.7758 52.4078 82.1962 51.999 80.5522 51.8926L77.2882 51.6819C76.3709 52.7762 72.5529 57.3311 71.0195 59.1602L71.7972 62.3371C72.9058 66.8657 76.2706 70.4903 80.6921 71.9693C83.9175 73.0481 87.7055 75.1423 91.867 78.1344C92.0128 77.6895 92.2413 77.2635 92.5605 76.8826L95.8369 72.9742C93.5355 70.9239 88.6632 66.8107 85.3155 65.5878Z" fill="#2A428C"/>
<path d="M114.691 81.4805L104.443 72.8906C104.299 73.3512 104.064 73.7915 103.735 74.1845L97.7947 81.2708C97.4654 81.6639 97.0726 81.9716 96.6445 82.1945L110.511 93.8186C112.315 89.9077 113.726 85.7787 114.691 81.4805Z" fill="#3C58A0"/>
<path d="M106.664 82.876C105.102 81.5664 104.859 79.2426 106.138 77.6554C106.153 77.6369 106.167 77.6204 106.178 77.6064L107.864 75.7585L104.443 72.8906C104.299 73.3512 104.064 73.7915 103.735 74.1845L97.7947 81.2708C97.4654 81.6639 97.0726 81.9716 96.6445 82.1945L110.511 93.8186C111.377 91.9422 112.149 90.0143 112.828 88.043L106.664 82.876Z" fill="#2A428C"/>
<path d="M84.5622 38.5887C83.3988 39.9766 81.331 40.1584 79.9434 38.9952L50.8054 14.5702C49.4175 13.4068 49.2357 11.339 50.3989 9.95138C51.5623 8.56353 53.6301 8.38173 55.0177 9.54487L84.1557 33.9699C85.5436 35.1331 85.7256 37.2009 84.5622 38.5887Z" fill="#FFDD40"/>
<path d="M55.0177 9.54487C53.6301 8.38173 51.562 8.56353 50.3989 9.95138C49.2357 11.339 49.4175 13.407 50.8054 14.5702L63.192 24.9532C63.5393 24.8407 63.8115 24.5309 63.8338 24.1282C63.9648 21.775 66.0476 21.1311 67.2809 20.9567C67.6041 20.911 67.8646 20.7 67.991 20.4197L55.0177 9.54487Z" fill="#FFB332"/>
<path d="M90.9505 26.7025C89.3806 28.5753 86.5896 28.8211 84.7168 27.2509L61.5316 7.81613C59.6588 6.24623 59.4132 3.45529 60.9832 1.58247C62.5531 -0.290341 65.344 -0.536122 67.2168 1.03404L90.4018 20.4691C92.2748 22.039 92.5204 24.8296 90.9505 26.7025Z" fill="#4F71B6"/>
<path d="M67.2168 1.03417C65.344 -0.535729 62.5531 -0.290202 60.9832 1.58261C59.4132 3.45543 59.6588 6.24637 61.5316 7.81627L71.3573 16.0525C71.4873 15.8745 71.5558 15.6503 71.5373 15.4167C71.1501 10.4922 75.0056 9.67867 76.6444 9.55426C76.8322 9.54004 77.0026 9.46616 77.1423 9.35418L67.2168 1.03417Z" fill="#3C58A0"/>
<path d="M59.4451 68.5497C60.6082 67.1618 60.4264 65.094 59.0386 63.9309L29.9005 39.5058C28.5129 38.3427 26.4448 38.5245 25.2817 39.9123C24.1185 41.2999 24.3003 43.368 25.6882 44.5311L54.8263 68.9562C56.2139 70.1196 58.2817 69.9375 59.4451 68.5497Z" fill="#FFDD40"/>
<path d="M29.9005 39.5058C28.5129 38.3427 26.4448 38.5245 25.2817 39.9123C24.1185 41.2999 24.3003 43.368 25.6882 44.5311L37.9554 54.8141C38.0961 54.6333 38.1702 54.4002 38.1461 54.1562C37.8551 51.1974 39.7417 50.4047 41.1696 50.2219C41.5452 50.1739 41.8247 49.9134 41.9306 49.59L29.9005 39.5058Z" fill="#FFB332"/>
<path d="M48.8567 76.918C50.4266 75.0452 50.1811 72.2543 48.3083 70.6844L25.1231 51.2496C23.2502 49.6797 20.4593 49.9253 18.8894 51.7981C17.3195 53.6709 17.565 56.4618 19.4378 58.0317L42.6231 77.4665C44.4961 79.0366 47.2868 78.7911 48.8567 76.918Z" fill="#4F71B6"/>
<path d="M25.127 51.2496C23.2542 49.6797 20.4632 49.9253 18.8933 51.7981C17.3234 53.6709 17.5689 56.4616 19.4417 58.0317L28.8944 65.9554C28.9709 65.803 29.0077 65.6306 28.9886 65.4532C28.4955 60.8567 32.0545 59.7438 33.8476 59.4747C34.1109 59.4351 34.3313 59.2868 34.4728 59.0837L25.127 51.2496Z" fill="#3C58A0"/>
<path d="M79.8622 84.672H11.2524C5.06366 84.672 0 89.7357 0 95.9244V98.6991C3.10096 104.105 6.99258 108.998 11.5134 113.227H91.1143V95.9241C91.1146 89.7357 86.0509 84.672 79.8622 84.672Z" fill="#4F71B6"/>
<path d="M34.7362 112.742C31.8797 111.59 31.8797 108.308 31.8797 108.308C31.8797 108.308 31.8797 99.7383 31.8797 92.8828C31.8797 86.0274 37.5926 84.672 37.5926 84.672H11.2524C5.06366 84.672 0 89.7357 0 95.9244V98.6991C3.10096 104.105 6.99259 108.998 11.5134 113.227H34.2883C34.5445 112.92 34.7362 112.742 34.7362 112.742Z" fill="#3C58A0"/>
<path d="M94.6433 114.886C94.1812 113.635 92.9817 112.742 91.5703 112.742H10.9961C13.5077 115.145 16.2205 117.34 19.1066 119.299H88.8903C90.8946 117.939 92.8154 116.465 94.6433 114.886Z" fill="#FFDD40"/>
<path d="M34.7366 112.742H10.9961C13.5077 115.145 16.2205 117.34 19.1066 119.299H34.7366C30.8011 116.39 34.7366 112.742 34.7366 112.742Z" fill="#FFB332"/>
<path d="M64.0234 57.5424L67.065 60.0922C68.2429 61.0796 70.0144 60.9237 71.0016 59.7458L77.8629 51.5606C78.8503 50.3828 78.6944 48.6113 77.5165 47.6241L74.475 45.0743L64.0234 57.5424Z" fill="#FFDD40"/>
<path d="M103.453 69.0156C101.853 67.6745 99.4687 67.8845 98.1278 69.4841L92.188 76.5704C90.8468 78.1702 91.0566 80.5542 92.6564 81.8951C94.2563 83.2362 96.6402 83.0265 97.9811 81.4266L103.921 74.3403C105.262 72.7407 105.052 70.3568 103.453 69.0156Z" fill="#FFDD40"/>
<path d="M97.5461 75.9473C96.3096 74.9108 95.8277 73.3109 96.1552 71.8375L92.188 76.5703C90.8468 78.1702 91.0566 80.5541 92.6564 81.895C94.2563 83.2361 96.6402 83.0264 97.9811 81.4266L102.147 76.4566C100.696 77.2061 98.8761 77.0622 97.5461 75.9473Z" fill="#FFB332"/>
<path d="M74.6586 45.2299C68.6964 46.4451 64.3624 51.6154 64.207 57.6982L69.7932 51.79L74.6586 45.2299Z" fill="#FFDD40"/>
</svg>
