<svg width="120" height="76" viewBox="0 0 120 76" fill="none" xmlns="http://www.w3.org/2000/svg">
<path d="M119.768 54.8925L113.514 19.2243C111.429 7.18048 99.8489 -0.925929 87.8051 1.15858C86.8787 1.39019 85.7206 1.6218 84.7942 1.85341C80.1619 3.24308 75.9929 6.25403 73.2136 10.1914C64.4123 12.5075 55.1479 12.5075 46.3466 10.423C43.5673 6.25403 39.3983 3.24308 34.7661 1.85341C23.1855 -1.85238 10.6784 4.63275 6.97266 16.2133C6.74105 17.1398 6.50943 18.0662 6.50943 19.2243L0.255921 54.8925C-1.36536 64.1569 4.88815 73.1898 14.1526 74.8111C21.3326 75.9691 28.5125 72.7266 31.9867 66.4731L39.6299 61.6092C51.9053 53.7344 67.4233 53.7344 79.6987 61.6092L88.0367 66.9363C92.9006 75.0427 103.555 77.5904 111.661 72.7266C117.683 68.7892 120.926 61.8408 119.768 54.8925Z" fill="#DBDBDB"/>
</svg>
