<svg width="47" height="70" viewBox="0 0 47 70" fill="none" xmlns="http://www.w3.org/2000/svg">
<path d="M46.2 61.3653V68.1038C46.2 68.7337 45.6892 69.2445 45.0593 69.2445C44.4293 69.2445 43.9185 68.7337 43.9185 68.1038V61.3653C43.9185 56.1186 39.6728 51.8726 34.4257 51.8727C31.9432 51.8727 29.6905 50.6079 28.4 48.4893C28.0722 47.9513 28.2427 47.2493 28.7807 46.9216C29.3186 46.5938 30.0206 46.7643 30.3484 47.3025C31.2214 48.7357 32.7457 49.5912 34.4257 49.5912C40.9333 49.591 46.2 54.8572 46.2 61.3653ZM30.285 53.0578C30.6908 53.5398 30.6289 54.2594 30.1469 54.6651C28.467 56.0792 26.4033 56.9502 24.2407 57.1786V62.4001C24.2407 63.03 23.73 63.5408 23.1 63.5408C22.47 63.5408 21.9593 63.03 21.9593 62.4001V57.1807C18.4305 56.8113 15.2919 54.745 13.5576 51.6456C12.9823 51.7946 12.3845 51.8726 11.7744 51.8726C6.51577 51.8726 2.28148 56.1288 2.28148 61.3651V68.1038C2.28148 68.7337 1.77071 69.2445 1.14074 69.2445C0.510767 69.2445 0 68.7337 0 68.1038V61.3653C0 54.8579 5.2658 49.5912 11.774 49.5912C14.4061 49.5912 16.5407 47.4707 16.5407 44.8369V44.5365C11.5616 42.1556 8.06661 37.1525 7.85357 31.3263C5.80452 30.8336 4.27778 28.9996 4.27778 26.8175V12.9204C4.27778 10.432 6.10852 8.36316 8.49367 7.98971C10.5426 3.59914 14.9053 0.800049 19.7993 0.800049H29.5821C36.4651 0.800049 42.0648 6.3998 42.0648 13.2827V26.8175C42.0648 27.4475 41.5541 27.9582 40.9241 27.9582C40.2941 27.9582 39.7833 27.4475 39.7833 26.8175V13.2827C39.7833 7.65775 35.2071 3.08153 29.5821 3.08153H19.7993C15.6038 3.08153 11.8858 5.59858 10.3277 9.49406C10.1544 9.92712 9.73494 10.2112 9.26852 10.2112C7.77458 10.2112 6.55926 11.4265 6.55926 12.9204V26.8175C6.55926 27.7227 7.08058 28.5094 7.84259 28.9045V21.5092C7.84259 17.1062 11.4248 13.524 15.8278 13.524H30.3722C34.7753 13.524 38.3574 17.1059 38.3574 21.5088V30.849C38.3574 40.7698 28.6628 48.3052 18.798 45.401C18.6206 47.6487 17.4021 49.5587 15.6528 50.7139C18.3713 55.3059 24.5734 56.3745 28.6775 52.9196C29.1592 52.5143 29.879 52.5759 30.285 53.0578ZM23.1 43.7382C30.255 43.7382 36.0759 37.9173 36.0759 30.7623V21.5088C36.0759 18.364 33.5173 15.8055 30.3722 15.8055H15.8278C12.6828 15.8055 10.1241 18.3642 10.1241 21.5092V30.7623C10.1241 37.9173 15.945 43.7382 23.1 43.7382Z" fill="#2E58FF"/>
</svg>
