<svg width="212" height="194" viewBox="0 0 212 194" fill="none" xmlns="http://www.w3.org/2000/svg">
<path d="M211.904 83.8464C211.904 69.2718 201.288 57.1731 187.351 54.866V21.1586C187.351 9.52886 177.841 0 166.211 0H21.1586C9.52886 0 0 9.52886 0 21.1586V146.534C0 158.164 9.52886 167.693 21.1586 167.693H64.4698C66.0642 182.418 78.538 193.878 93.6754 193.878C108.813 193.878 121.287 182.418 122.881 167.693H166.211C177.841 167.693 187.37 158.164 187.37 146.534V112.827C201.288 110.52 211.904 98.4211 211.904 83.8464Z" fill="url(#paint0_linear)"/>
<defs>
<linearGradient id="paint0_linear" x1="105.952" y1="2.51883e-06" x2="183.28" y2="171.163" gradientUnits="userSpaceOnUse">
<stop stop-color="#FFBA39"/>
<stop offset="1" stop-color="#FFE07D"/>
</linearGradient>
</defs>
</svg>
