<svg width="34" height="34" viewBox="0 0 34 34" fill="none" xmlns="http://www.w3.org/2000/svg">
<path d="M7.46989 17.3093C10.1292 17.3093 12.2927 15.1458 12.2927 12.4865C12.2927 9.82723 10.1292 7.66378 7.46989 7.66378C4.81062 7.66378 2.6471 9.8273 2.6471 12.4865C2.6471 15.1458 4.81062 17.3093 7.46989 17.3093ZM7.46989 9.85733C8.91962 9.85733 10.0991 11.0368 10.0991 12.4865C10.0991 13.9362 8.91962 15.1157 7.46989 15.1157C6.02016 15.1157 4.84065 13.9362 4.84065 12.4865C4.84065 11.0368 6.02016 9.85733 7.46989 9.85733ZM14.9417 23.0228V25.2394C14.9417 25.8451 14.4506 26.3362 13.8449 26.3362C13.2392 26.3362 12.7481 25.8451 12.7481 25.2394V23.0228C12.7481 22.1403 12.3533 21.3175 11.6651 20.7653C11.3152 20.4846 10.9755 20.1727 10.3287 19.9913C9.169 22.3513 5.77215 22.3543 4.61101 19.9913C3.96604 20.1722 3.62652 20.483 3.27466 20.7653C2.58637 21.3175 2.1916 22.1404 2.1916 23.0228V25.2394C2.1916 25.8451 1.70051 26.3362 1.09482 26.3362C0.489128 26.3362 -0.00195312 25.8451 -0.00195312 25.2394V23.0228C-0.00195312 21.4715 0.692031 20.0251 1.90191 19.0543L2.20722 18.8094C3.10692 18.0876 4.23763 17.69 5.39109 17.69C5.95497 17.69 6.42693 18.1175 6.48252 18.6786C6.5329 19.1871 6.95735 19.5706 7.46982 19.5706C7.98229 19.5706 8.40667 19.1872 8.45712 18.6786C8.51272 18.1175 8.98467 17.69 9.54855 17.69C10.702 17.69 11.8327 18.0875 12.7324 18.8093L13.0377 19.0543C14.2477 20.0251 14.9417 21.4715 14.9417 23.0228ZM19.3288 8.29435V15.9032H22.8247C23.4304 15.9032 23.9215 16.3943 23.9215 17C23.9215 17.6057 23.4304 18.0968 22.8247 18.0968H19.3288V25.7056C19.3288 27.6334 20.897 29.2016 22.8247 29.2016C23.4304 29.2016 23.9215 29.6927 23.9215 30.2984C23.9215 30.9041 23.4304 31.3952 22.8247 31.3952C19.6875 31.3952 17.1352 28.8429 17.1352 25.7056V18.0968H15.8328C15.2271 18.0968 14.736 17.6057 14.736 17C14.736 16.3943 15.2271 15.9032 15.8328 15.9032H17.1352V8.29435C17.1352 5.1571 19.6875 2.60484 22.8247 2.60484C23.4304 2.60484 23.9215 3.09592 23.9215 3.70161C23.9215 4.30731 23.4304 4.79839 22.8247 4.79839C20.897 4.79839 19.3288 6.36664 19.3288 8.29435ZM30.2965 7.40323C32.3376 7.40323 33.9981 5.74271 33.9981 3.70161C33.9981 1.66052 32.3376 0 30.2965 0C28.2554 0 26.5949 1.66052 26.5949 3.70161C26.5949 5.74271 28.2554 7.40323 30.2965 7.40323ZM30.2965 2.19355C31.1281 2.19355 31.8046 2.87005 31.8046 3.70161C31.8046 4.53317 31.1281 5.20968 30.2965 5.20968C29.4649 5.20968 28.7884 4.53317 28.7884 3.70161C28.7884 2.87005 29.4649 2.19355 30.2965 2.19355ZM30.2965 26.5968C28.2554 26.5968 26.5949 28.2573 26.5949 30.2984C26.5949 32.3395 28.2554 34 30.2965 34C32.3376 34 33.9981 32.3395 33.9981 30.2984C33.9981 28.2573 32.3376 26.5968 30.2965 26.5968ZM30.2965 31.8065C29.4649 31.8065 28.7884 31.1299 28.7884 30.2984C28.7884 29.4668 29.4649 28.7903 30.2965 28.7903C31.1281 28.7903 31.8046 29.4668 31.8046 30.2984C31.8046 31.1299 31.1281 31.8065 30.2965 31.8065ZM30.2965 13.2984C28.2554 13.2984 26.5949 14.9589 26.5949 17C26.5949 19.0411 28.2554 20.7016 30.2965 20.7016C32.3376 20.7016 33.9981 19.0411 33.9981 17C33.9981 14.9589 32.3376 13.2984 30.2965 13.2984ZM30.2965 18.5081C29.4649 18.5081 28.7884 17.8316 28.7884 17C28.7884 16.1684 29.4649 15.4919 30.2965 15.4919C31.1281 15.4919 31.8046 16.1684 31.8046 17C31.8046 17.8316 31.1281 18.5081 30.2965 18.5081Z" fill="#2E58FF"/>
</svg>
