<svg width="80" height="80" viewBox="0 0 80 80" fill="none" xmlns="http://www.w3.org/2000/svg">
<circle cx="40" cy="40" r="40" fill="white"/>
<g clip-path="url(#clip0)">
<path d="M24.5574 25.2847C29.675 20.1148 37.3163 20.6105 40.5412 20.6105C43.766 20.6105 51.4074 20.1148 56.5251 25.2847C61.6427 30.4546 61.4324 49.7888 61.4324 49.7888H53.1013L40.5412 45.2979L26.7616 49.7888H19.65C19.65 49.7888 19.4397 30.4546 24.5574 25.2847Z" fill="#F46F2F"/>
<path d="M43.1779 20.6104C42.7965 20.6104 42.3528 20.6036 41.8594 20.5999C42.3566 20.5962 42.9046 20.5958 43.4922 20.6092C43.3832 20.6099 43.2784 20.6104 43.1779 20.6104Z" fill="#EEF0F0"/>
<path d="M44.996 48.0972L40.5409 45.2979L35.6533 48.0972H28.6599C28.7086 43.2731 29.0588 29.5219 31.4455 25.2847C34.3577 20.1148 38.7058 20.6105 40.5409 20.6105C42.3759 20.6105 46.7241 20.1148 49.6362 25.2847C52.0229 29.5219 52.3732 43.2731 52.4219 48.0972H44.996Z" fill="#FAFFFD"/>
<path d="M19.5688 49.9448C24.7565 44.7042 35.7687 42.5586 40.5012 42.5586C45.2338 42.5586 56.246 44.7042 61.4336 49.9448C61.4336 49.9448 65.0741 60.2421 57.7932 56.1967C50.5123 52.1514 48.3281 50.1292 40.5012 50.1292C32.6743 50.1292 30.4901 52.1514 23.2093 56.1967C15.9285 60.2421 19.5688 49.9448 19.5688 49.9448Z" fill="#F46F2F"/>
<path d="M35.3467 38.1028H44.9085C45.2891 38.1028 45.5977 37.7942 45.5977 37.4136V34.0979C45.5977 33.7172 45.2891 33.4087 44.9085 33.4087H35.3467C34.966 33.4087 34.6575 33.7172 34.6575 34.0979V37.4136C34.6575 37.7942 34.9661 38.1028 35.3467 38.1028Z" fill="#7191F0"/>
<path d="M35.3455 33.4087H37.9824C37.6018 33.4087 37.2932 33.7173 37.2932 34.0979V37.4136C37.2932 37.7941 37.6018 38.1028 37.9824 38.1028H35.3455C34.9649 38.1028 34.6563 37.7942 34.6563 37.4136V34.0979C34.6563 33.7173 34.9649 33.4087 35.3455 33.4087Z" fill="#6084F0"/>
<path d="M38.3112 20.6049H42.6914V20.0471C42.6914 18.8375 41.7108 17.8569 40.5013 17.8569C39.2917 17.8569 38.3111 18.8375 38.3111 20.0471V20.6049H38.3112Z" fill="#5BA4A4"/>
<path d="M18.1776 52.7117C18.4474 51.1448 18.9259 49.782 18.9461 49.7248C18.9578 49.6917 18.9729 49.6603 18.9895 49.6297C18.9789 47.5925 19.0357 29.9256 24.0888 24.8207C26.2274 22.6602 29.0459 21.2031 32.4661 20.49C34.1244 20.1442 35.7322 20.0106 37.1374 19.9627C37.3237 19.9607 37.4945 19.959 37.653 19.9572C37.7007 18.4276 38.9591 17.1978 40.5 17.1978C42.0374 17.1978 43.2935 18.4218 43.3468 19.9465C46.8983 20.0114 51.9257 20.5423 55.9323 23.8509C56.2131 24.0828 56.2527 24.4982 56.0209 24.779C55.789 25.0596 55.3736 25.0994 55.0928 24.8676C52.7191 22.9074 49.9084 22.0034 47.3076 21.5915C48.3362 22.3354 49.3374 23.4101 50.211 24.961C51.275 26.8498 52.6175 31.7436 53.0034 44.314C55.565 45.226 58.468 46.5643 60.7654 48.4504C60.7038 44.3167 60.2301 31.6845 56.788 26.6473C56.5826 26.3467 56.6598 25.9365 56.9604 25.7311C57.2611 25.5257 57.6712 25.6028 57.8766 25.9035C62.2313 32.2762 62.0994 49.0834 62.0916 49.7958C62.0916 49.8069 62.0903 49.8177 62.0896 49.8287C62.2083 50.1806 62.5916 51.371 62.8224 52.7117C63.2144 54.9886 62.9568 56.5288 62.0568 57.2896C61.0813 58.1141 59.5816 57.945 57.4718 56.7727C56.4033 56.1791 55.4259 55.6183 54.5636 55.1235C49.5323 52.2371 47.0069 50.7882 40.5 50.7882C33.9932 50.7882 31.4678 52.237 26.4365 55.1235C25.5742 55.6182 24.5968 56.179 23.5283 56.7727C22.2921 57.4596 21.2654 57.802 20.4309 57.802C19.8411 57.802 19.3472 57.631 18.9433 57.2896C18.0432 56.5287 17.7857 54.9885 18.1776 52.7117ZM40.5 18.5162C39.6909 18.5162 39.0264 19.1473 38.9728 19.9431C40.0381 19.9325 39.9258 19.9381 42.0269 19.9394C41.9712 19.1454 41.3079 18.5162 40.5 18.5162ZM49.0622 25.608C46.8909 21.7534 43.8834 21.291 41.856 21.259C41.6747 21.2604 39.4026 21.2603 39.2192 21.259C37.1921 21.2917 34.1889 21.758 32.0202 25.6081C31.1968 27.0699 30.5404 29.9367 30.0692 34.1287C30.0285 34.4906 29.701 34.7508 29.3404 34.7102C28.9786 34.6695 28.7183 34.3432 28.759 33.9814C29.25 29.6127 29.9609 26.5779 30.8716 24.9611C31.7475 23.4059 32.7517 22.3296 33.7833 21.5853C30.8184 22.051 27.5907 23.1573 25.0259 25.7484C23.0409 27.7537 21.5939 32.5204 20.8414 39.5333C20.4506 43.1754 20.3449 46.5606 20.3175 48.3827C22.6267 46.5118 25.5288 45.1864 28.0799 44.2846C28.1677 41.4518 28.3141 38.8203 28.5159 36.4567C28.5469 36.0939 28.8669 35.8248 29.2288 35.856C29.5915 35.8869 29.8606 36.2061 29.8295 36.5688C29.6414 38.7733 29.5018 41.2153 29.4135 43.8394C29.6182 43.775 29.8194 43.7133 30.0159 43.6547C34.3581 42.3591 38.3775 41.8993 40.4999 41.8993C42.6224 41.8993 46.6418 42.3588 50.9841 43.6544C51.2072 43.721 51.4364 43.7915 51.67 43.8656C51.3582 34.515 50.4364 28.0476 49.0622 25.608ZM19.7946 56.2827C20.2809 56.6936 21.3794 56.4582 22.8879 55.6201C23.9484 55.0309 24.9217 54.4725 25.7804 53.9799C31.0146 50.977 33.6417 49.4697 40.4999 49.4697C47.3581 49.4697 49.9854 50.977 55.2196 53.9799C56.0782 54.4725 57.0515 55.0309 58.1121 55.6201C59.6205 56.4583 60.7189 56.6935 61.2054 56.2827C62.1219 55.5085 61.565 52.3722 60.8592 50.3038C55.7857 45.2981 45.1216 43.2176 40.4999 43.2176C35.8784 43.2176 25.2142 45.2981 20.1407 50.3038C19.4348 52.3723 18.8781 55.5085 19.7946 56.2827Z" fill="#5A5889"/>
<path d="M44.9074 38.762H35.3457C34.6022 38.762 33.9973 38.1571 33.9973 37.4136V34.0979C33.9973 33.3544 34.6022 32.7495 35.3457 32.7495H44.9074C45.651 32.7495 46.2559 33.3544 46.2559 34.0979V37.4136C46.2559 38.1572 45.651 38.762 44.9074 38.762ZM44.9374 34.098C44.9374 34.0815 44.924 34.0681 44.9074 34.0681H35.3457C35.3292 34.0681 35.3157 34.0815 35.3157 34.098V37.4137C35.3157 37.4302 35.3292 37.4437 35.3457 37.4437H44.9074C44.924 37.4437 44.9374 37.4302 44.9374 37.4137V34.098Z" fill="#5A5889"/>
</g>
<defs>
<clipPath id="clip0">
<rect width="45" height="45" fill="white" transform="matrix(-1 0 0 1 63 15)"/>
</clipPath>
</defs>
</svg>
