<svg width="200" height="200" viewBox="0 0 200 200" fill="none" xmlns="http://www.w3.org/2000/svg">
<path d="M115.59 198.283L115.59 198.283C113.208 198.659 110.759 197.656 108.123 196.467C107.949 196.389 107.774 196.309 107.599 196.23C105.177 195.131 102.607 193.965 100 193.965C98.7718 193.965 97.5715 194.319 96.4148 194.814C95.3668 195.263 94.3249 195.841 93.3139 196.401C93.2118 196.458 93.1099 196.515 93.0084 196.571C91.8903 197.19 90.8109 197.77 89.7464 198.163C88.6851 198.555 87.672 198.746 86.6879 198.613L86.6873 198.613C63.1234 195.465 42.1703 184.066 26.8209 167.419C25.9396 166.462 25.4112 165.241 25.0779 163.835C24.7437 162.425 24.6131 160.864 24.5039 159.244C24.4905 159.045 24.4774 158.845 24.4643 158.644C24.3715 157.227 24.2766 155.777 24.0516 154.41C23.7942 152.846 23.3607 151.345 22.5344 150.071C21.8487 149.013 20.7788 148.248 19.5899 147.63C18.5044 147.065 17.2733 146.599 16.0763 146.147C15.9629 146.104 15.8498 146.061 15.7371 146.018C14.4195 145.518 13.1616 145.023 12.1141 144.405C11.0689 143.788 10.2807 143.076 9.85518 142.167L9.85507 142.166C3.8543 129.365 0.5 115.074 0.5 100C0.5 84.3395 4.1186 69.52 10.5702 56.3409L10.5703 56.3407C16.6607 43.8801 25.2815 32.8805 35.7643 24.0106C53.0994 9.34581 75.5172 0.5 100 0.5C124.833 0.5 147.542 9.59844 164.974 24.6441L165.301 24.2656L164.974 24.6442C175.123 33.4013 183.483 44.1717 189.43 56.3368L189.43 56.337C195.881 69.52 199.5 84.3356 199.5 100C199.5 115.074 196.15 129.361 190.149 142.163L190.602 142.375L190.149 142.163C190.049 142.376 189.82 142.669 189.44 143.039C189.068 143.401 188.586 143.804 188.021 144.239C186.892 145.108 185.472 146.074 184.03 147.047L183.706 147.266C182.377 148.162 181.05 149.058 179.961 149.868C179.372 150.306 178.844 150.725 178.419 151.112C178.003 151.491 177.652 151.867 177.45 152.222C175.605 155.469 175.592 157.947 175.581 160.151C175.58 160.341 175.579 160.53 175.577 160.716C175.563 161.884 175.505 162.965 175.143 164.094C174.783 165.217 174.112 166.42 172.829 167.796L173.195 168.137L172.829 167.796C158.013 183.705 138.047 194.751 115.59 198.283Z" fill="white" stroke="#2E58FF"/>
<path d="M190.602 142.375C186.152 151.871 180.258 160.555 173.195 168.137C148.516 173.633 129.535 186.242 115.668 198.777C110.562 199.582 105.328 200 100 200C95.4648 200 90.996 199.699 86.621 199.109C72.3125 186.113 52.4726 172.973 26.4531 167.758C19.5507 160.266 13.7734 151.715 9.4023 142.379C8.46871 113.625 8.70699 84.8711 10.1211 56.1211C10.5156 48.043 11.0039 39.9688 11.5859 31.8906C12.2617 22.5156 22.3203 17.0313 30.6406 21.3945C32.1484 22.1875 33.75 22.9414 35.4414 23.6289C36.3867 24.0195 37.3593 24.3828 38.3593 24.7266C52.2343 29.4258 71.6562 29.4531 92.3593 10.9883C97.2968 6.58204 104.727 6.57814 109.691 10.957C131.445 30.1524 151.137 29.6367 165.301 24.2656C166.852 23.6797 168.34 23.0313 169.754 22.3477C178.086 18.3125 187.844 23.8594 188.5 33.0938C189.043 40.7696 189.504 48.4414 189.879 56.1172C191.293 84.8711 191.531 113.625 190.602 142.375Z" fill="#51AAF7"/>
<path d="M123.334 35.8775C119.422 35.3415 115.452 35.2911 111.533 35.731C108.354 36.0829 105.205 36.7571 102.136 37.7493C95.2008 39.9939 88.6766 43.8716 83.1652 49.3825C77.6543 54.8892 73.7809 61.4138 71.536 68.3525C71.2133 69.3489 70.9246 70.3583 70.6692 71.372C70.1371 73.4743 69.752 75.6056 69.5176 77.7497C69.0777 81.6735 69.1281 85.6353 69.6641 89.5462C69.907 91.3345 70.7277 92.9341 71.9254 94.161C72.0969 94.1275 72.3485 94.0607 72.6918 93.9142C75.1039 92.9048 77.7379 91.5482 80.5184 89.8732C82.7883 88.5122 85.1582 86.9333 87.5621 85.1915C93.2488 81.0665 98.9528 76.1544 104.518 70.5931C110.067 65.0403 114.979 59.3368 119.112 53.6372C120.858 51.2333 122.433 48.8634 123.798 46.5978C125.469 43.8173 126.83 41.1829 127.839 38.7669C127.927 38.5493 127.99 38.3732 128.032 38.2267C126.797 36.9786 125.164 36.1286 123.334 35.8775ZM106.918 51.7571C106.407 52.2724 105.57 52.2724 105.059 51.7571L103.375 50.0735C102.408 50.7017 101.478 51.3298 100.586 51.9665L102.056 53.4407C102.316 53.6962 102.445 54.0353 102.445 54.3704C102.445 54.7095 102.316 55.0446 102.056 55.3044C101.545 55.8153 100.707 55.8153 100.196 55.3044L98.4504 53.5583C97.5418 54.2575 96.6832 54.9571 95.8668 55.6564L97.1942 56.9837C97.4539 57.2435 97.5836 57.5782 97.5836 57.9177C97.5836 58.2528 97.4539 58.5919 97.1942 58.8474C96.6832 59.3626 95.8457 59.3626 95.3348 58.8474L93.8942 57.4068C93.0485 58.19 92.261 58.9603 91.5199 59.7185L92.9942 61.1884C93.2496 61.4439 93.3793 61.7829 93.3793 62.1181C93.3793 62.4571 93.2496 62.7923 92.9942 63.0521C92.4789 63.5673 91.6457 63.5673 91.1305 63.0521L89.7192 61.6407C88.932 62.52 88.2199 63.37 87.575 64.1786L89.4469 66.0505C89.7067 66.306 89.832 66.645 89.832 66.9802C89.832 67.3193 89.7063 67.6544 89.4469 67.9142C88.9317 68.4294 88.0985 68.4294 87.5832 67.9142L85.9625 66.2935C85.2004 67.3446 84.5766 68.2911 84.0824 69.0907L85.9039 70.9122C86.1594 71.172 86.2891 71.5067 86.2891 71.8462C86.2891 72.1814 86.1594 72.5204 85.9039 72.7759C85.3887 73.2911 84.5555 73.2911 84.0403 72.7759L82.7297 71.4653C82.5914 71.7376 82.5203 71.8884 82.5121 71.9052C82.2192 72.5669 81.4402 72.8685 80.7742 72.5708C80.2465 72.3364 79.9492 71.7919 79.9996 71.2474C79.782 71.2685 79.5559 71.2349 79.3422 71.1384C78.6762 70.8411 78.3789 70.0622 78.6762 69.4005C78.6973 69.3462 78.9106 68.8771 79.3461 68.0814L78.0313 66.7665C77.516 66.2513 77.516 65.4181 78.0313 64.9028C78.5465 64.3919 79.3797 64.3919 79.8949 64.9028L80.7324 65.7446C81.2559 64.9239 81.8883 63.99 82.6422 62.9681L81.5785 61.9044C81.0633 61.3892 81.0633 60.556 81.5785 60.0407C82.0938 59.5298 82.927 59.5298 83.4422 60.0407L84.2629 60.8657C84.8953 60.0786 85.6113 59.2325 86.4195 58.3407L85.1215 57.0427C84.6063 56.5275 84.6063 55.6943 85.1215 55.179C85.6367 54.6681 86.4699 54.6681 86.9852 55.179L88.2246 56.4228C88.9574 55.6732 89.7488 54.8985 90.5988 54.1153L89.3258 52.838C88.8106 52.3271 88.8106 51.4939 89.3258 50.9786C89.841 50.4634 90.6742 50.4634 91.1895 50.9786L92.5672 52.3564C93.3797 51.661 94.2379 50.9536 95.1426 50.2501L94.1879 49.2954C93.6727 48.7802 93.6727 47.947 94.1879 47.4318C94.7031 46.9165 95.5363 46.9165 96.0516 47.4318L97.2703 48.6505C98.1539 48.0099 99.0754 47.3732 100.038 46.7407L99.05 45.7482C98.5348 45.2372 98.5348 44.3997 99.05 43.8888C99.5652 43.3735 100.398 43.3735 100.914 43.8888L102.325 45.2958C102.643 45.1032 102.97 44.9064 103.296 44.7138C103.925 44.3454 104.733 44.5587 105.101 45.1829C105.223 45.3923 105.281 45.6228 105.281 45.8489C105.281 45.8907 105.277 45.9325 105.273 45.9747C105.767 45.9286 106.266 46.163 106.529 46.6153C106.655 46.8247 106.714 47.0552 106.714 47.2814C106.714 47.7337 106.479 48.1732 106.061 48.4204C105.931 48.4958 105.805 48.5712 105.675 48.6509L106.919 49.8946C107.179 50.1544 107.309 50.4892 107.309 50.8286C107.307 51.1622 107.178 51.5017 106.918 51.7571Z" fill="url(#paint0_linear)"/>
<path d="M132.13 56.327C131.777 59.5055 131.104 62.6559 130.111 65.725C127.865 72.6613 123.99 79.1852 118.48 84.6949C112.97 90.2035 106.447 94.0797 99.5084 96.323C96.4393 97.316 93.2885 97.9894 90.1092 98.3422C86.1881 98.7809 82.2244 98.7309 78.3127 98.1945C77.5818 98.0945 76.8811 97.898 76.2236 97.6187C78.5088 96.6098 80.9603 95.3215 83.5248 93.7777C85.8576 92.3762 88.2916 90.7574 90.7576 88.9688C96.5557 84.7629 102.366 79.7617 108.027 74.1031C113.676 68.4523 118.679 62.6422 122.894 56.8336C124.683 54.3664 126.302 51.9336 127.703 49.6008C129.193 47.1258 130.448 44.7508 131.443 42.5273C131.704 43.157 131.887 43.8262 131.983 44.5242C132.519 48.4371 132.569 52.4059 132.13 56.327Z" fill="url(#paint1_linear)"/>
<path d="M164.522 44.7433L166.947 49.6573C167.446 50.6683 168.411 51.3687 169.526 51.5308L174.949 52.3187C177.759 52.7269 178.88 56.1792 176.847 58.1605L172.923 61.9855C172.116 62.7722 171.748 63.9062 171.938 65.0171L172.864 70.4183C173.344 73.2163 170.408 75.3499 167.895 74.0288L163.044 71.4788C162.047 70.9542 160.854 70.9542 159.857 71.4788L155.006 74.0288C152.494 75.3499 149.557 73.2163 150.037 70.4183L150.963 65.0171C151.154 63.9062 150.785 62.7726 149.978 61.9855L146.054 58.1605C144.021 56.1788 145.143 52.7269 147.952 52.3187L153.375 51.5308C154.49 51.3687 155.455 50.6679 155.954 49.6573L158.379 44.7433C159.636 42.1976 163.266 42.1976 164.522 44.7433Z" fill="url(#paint2_linear)"/>
<path d="M41.6207 44.7433L44.046 49.6573C44.5449 50.6683 45.5093 51.3687 46.6249 51.5308L52.048 52.3187C54.8574 52.7269 55.9789 56.1792 53.946 58.1605L50.0218 61.9855C49.2148 62.7722 48.8464 63.9062 49.0367 65.0171L49.9628 70.4183C50.4425 73.2163 47.5062 75.3499 44.9933 74.0288L40.1429 71.4788C39.1453 70.9542 37.9531 70.9542 36.9554 71.4788L32.105 74.0288C29.5925 75.3499 26.6558 73.2163 27.1355 70.4183L28.0617 65.0171C28.2523 63.9062 27.8839 62.7726 27.0765 61.9855L23.1523 58.1605C21.1195 56.1788 22.2414 52.7269 25.0503 52.3187L30.4734 51.5308C31.589 51.3687 32.5535 50.6679 33.0523 49.6573L35.4777 44.7433C36.7343 42.1976 40.3644 42.1976 41.6207 44.7433Z" fill="url(#paint3_linear)"/>
<path d="M103.072 162.856L105.497 167.77C105.996 168.781 106.96 169.481 108.076 169.644L113.499 170.431C116.309 170.84 117.43 174.292 115.397 176.274L111.473 180.099C110.666 180.885 110.298 182.019 110.488 183.13L111.414 188.531C111.894 191.329 108.957 193.463 106.444 192.142L101.594 189.592C100.596 189.067 99.4042 189.067 98.4066 189.592L93.5562 192.142C91.0437 193.463 88.107 191.329 88.5867 188.531L89.5128 183.13C89.7035 182.019 89.3351 180.886 88.5277 180.099L84.6035 176.274C82.5707 174.292 83.6925 170.84 86.5015 170.431L91.9246 169.644C93.0402 169.481 94.0046 168.781 94.5035 167.77L96.9289 162.856C98.1855 160.31 101.815 160.31 103.072 162.856Z" fill="url(#paint4_linear)"/>
<path d="M80.9815 111.288C80.9713 111.261 80.9608 111.234 80.9494 111.208C80.392 109.853 79.0865 108.979 77.6225 108.979C77.6213 108.979 77.6198 108.979 77.6186 108.979C76.153 108.981 74.8475 109.858 74.2924 111.215C74.2834 111.237 74.2744 111.259 74.2662 111.281L63.1986 140.34C62.6225 141.852 63.3815 143.545 64.8936 144.121C66.4065 144.697 68.0983 143.938 68.674 142.426L70.7119 137.075H84.4502L86.4662 142.417C86.9092 143.59 88.0237 144.313 89.208 144.313C89.5514 144.313 89.9014 144.252 90.2416 144.124C91.7553 143.552 92.5198 141.862 91.9483 140.349L80.9815 111.288ZM72.9436 131.217L77.6127 118.958L82.2389 131.217H72.9436Z" fill="white"/>
<path d="M33.2481 138.429C30.6598 138.443 27.8711 138.453 25.873 138.454V111.909C25.873 110.291 24.5613 108.979 22.9434 108.979C21.3254 108.979 20.0137 110.291 20.0137 111.909V141.358C20.0137 142.785 21.0418 144.004 22.448 144.246C22.6574 144.282 22.8477 144.314 26.0777 144.314C27.6457 144.314 29.9301 144.306 33.2805 144.288C34.8984 144.279 36.2027 142.96 36.1938 141.342C36.1848 139.724 34.8613 138.438 33.2481 138.429Z" fill="white"/>
<path d="M181.42 138.454H172.044V129.71H180.513C182.131 129.71 183.443 128.398 183.443 126.78C183.443 125.163 182.131 123.851 180.513 123.851H172.044V115.107H181.42C183.038 115.107 184.35 113.796 184.35 112.178C184.35 110.56 183.038 109.248 181.42 109.248H169.114C167.496 109.248 166.185 110.56 166.185 112.178V141.383C166.185 143.001 167.496 144.313 169.114 144.313H181.42C183.038 144.313 184.35 143.001 184.35 141.383C184.35 139.765 183.038 138.454 181.42 138.454Z" fill="white"/>
<path d="M56.6838 115.107C58.3017 115.107 59.6135 113.796 59.6135 112.178C59.6135 110.56 58.3017 109.248 56.6838 109.248H44.3779C42.76 109.248 41.4482 110.56 41.4482 112.178V141.383C41.4482 143.001 42.76 144.313 44.3779 144.313H56.6838C58.3017 144.313 59.6135 143.001 59.6135 141.383C59.6135 139.765 58.3017 138.454 56.6838 138.454H47.3076V129.71H55.7764C57.3943 129.71 58.706 128.398 58.706 126.78C58.706 125.163 57.3943 123.851 55.7764 123.851H47.3076V115.107H56.6838Z" fill="white"/>
<path d="M124.289 123.717H115.472C113.854 123.717 112.542 125.028 112.542 126.646C112.542 128.264 113.854 129.576 115.472 129.576H121.108C120.309 134.14 117.519 138.454 111.567 138.454C105.057 138.454 99.7594 133.157 99.7594 126.646C99.7594 120.136 105.056 114.838 111.567 114.838C113.934 114.838 116.216 115.535 118.167 116.853C119.507 117.759 121.329 117.407 122.235 116.066C123.141 114.725 122.788 112.904 121.447 111.998C118.524 110.023 115.107 108.979 111.568 108.979C101.826 108.979 93.9004 116.904 93.9004 126.646C93.9004 136.388 101.826 144.313 111.568 144.313C120.783 144.313 127.219 137.048 127.219 126.646C127.219 125.028 125.907 123.717 124.289 123.717Z" fill="white"/>
<path d="M156.495 108.979C154.877 108.979 153.565 110.291 153.565 111.909V132.169C153.565 133.671 153.156 135.873 149.622 137.652C148.567 138.184 147.377 138.454 146.088 138.454C146.084 138.454 146.079 138.454 146.075 138.454C144.626 138.452 143.364 138.094 142.215 137.361C139.892 135.876 138.944 134.378 138.944 132.191V111.909C138.944 110.291 137.632 108.979 136.014 108.979C134.396 108.979 133.084 110.291 133.084 111.909V132.191C133.084 136.423 135.039 139.729 139.061 142.298C141.147 143.632 143.505 144.309 146.067 144.313H146.088C148.302 144.313 150.377 143.833 152.258 142.886C158.181 139.903 159.425 135.412 159.425 132.169V111.909C159.424 110.291 158.113 108.979 156.495 108.979Z" fill="white"/>
<defs>
<linearGradient id="paint0_linear" x1="98.6264" y1="35.4346" x2="98.6264" y2="94.161" gradientUnits="userSpaceOnUse">
<stop stop-color="#BF7A3A"/>
<stop offset="1" stop-color="#2F2F2F"/>
</linearGradient>
<linearGradient id="paint1_linear" x1="104.325" y1="42.5273" x2="104.325" y2="98.6377" gradientUnits="userSpaceOnUse">
<stop stop-color="#C67D3A"/>
<stop offset="1" stop-color="#2F2F2F"/>
</linearGradient>
<linearGradient id="paint2_linear" x1="161.451" y1="42.834" x2="161.451" y2="74.4299" gradientUnits="userSpaceOnUse">
<stop stop-color="white"/>
<stop offset="1" stop-color="#B7DAFA"/>
</linearGradient>
<linearGradient id="paint3_linear" x1="38.5492" y1="42.834" x2="38.5492" y2="74.4299" gradientUnits="userSpaceOnUse">
<stop stop-color="white"/>
<stop offset="1" stop-color="#AAD3F9"/>
</linearGradient>
<linearGradient id="paint4_linear" x1="100" y1="160.947" x2="100" y2="192.543" gradientUnits="userSpaceOnUse">
<stop stop-color="white"/>
<stop offset="1" stop-color="#A1CEF8"/>
</linearGradient>
</defs>
</svg>
