<svg width="55" height="55" viewBox="0 0 55 55" fill="none" xmlns="http://www.w3.org/2000/svg">
<circle cx="27.5" cy="27.5" r="27.5" fill="white"/>
<mask id="mask0" mask-type="alpha" maskUnits="userSpaceOnUse" x="0" y="0" width="55" height="55">
<circle cx="27.5" cy="27.5" r="27.5" fill="white"/>
</mask>
<g mask="url(#mask0)">
<path d="M42.8613 41.9017V55.9999H11.1387V41.9017C11.1387 40.1703 18.3591 35.6318 18.3591 35.6318H35.551C35.551 35.6318 42.8613 40.2924 42.8613 41.9017Z" fill="#73CDE5"/>
<path d="M36.1339 45.1392H35.123V55.9998H36.1339V45.1392Z" fill="#59B2C6"/>
<path d="M18.876 45.1392H17.8652V55.9998H18.876V45.1392Z" fill="#59B2C6"/>
<path d="M33.4523 35.6318V36.3195C33.4523 38.0442 32.7802 39.664 31.5614 40.8816C30.3438 42.0992 28.724 42.77 27.0005 42.77C23.4429 42.77 20.5488 39.876 20.5488 36.3195V35.6318H33.4523Z" fill="#F75763"/>
<path d="M32.2465 32.7344V36.3197C32.2465 37.7674 31.6599 39.0801 30.7097 40.0291C29.7607 40.9782 28.4479 41.5659 26.9991 41.5659C24.1014 41.5659 21.7529 39.2174 21.7529 36.3197V32.7344H32.2465Z" fill="#FFD3AE"/>
<path d="M32.2474 32.7344V35.632C30.6986 36.51 28.9078 37.011 27.0001 37.011C25.0924 37.011 23.3027 36.51 21.7539 35.632V32.7344H32.2474Z" fill="#E5B591"/>
<path d="M37.6589 15.5936V24.5058C37.6589 26.7098 36.9892 28.7584 35.8415 30.4577C35.644 30.7528 35.4308 31.037 35.2032 31.3104C34.5709 32.0728 33.8338 32.7448 33.0149 33.306C32.992 33.3229 32.9679 33.3385 32.945 33.3542C31.2469 34.4971 29.2019 35.1643 27.0003 35.1643C24.7988 35.1643 22.7538 34.4971 21.0556 33.3542C21.0328 33.3385 21.0087 33.3229 20.9858 33.306C19.166 32.0607 17.7521 30.265 16.9849 28.1586C16.5682 27.0193 16.3418 25.7896 16.3418 24.5058V15.5936C16.3418 14.7566 16.4381 13.9424 16.6212 13.1608C17.7208 8.44695 21.9505 4.93506 27.0003 4.93506C29.9438 4.93506 32.609 6.12737 34.5372 8.05674C36.4653 9.98612 37.6589 12.6501 37.6589 15.5936Z" fill="#FFD3AE"/>
<path d="M21.3242 21.7163H25.5448C26.3302 21.7163 26.9671 22.3531 26.9671 23.1387V25.6826C26.9671 26.2959 27.4643 26.793 28.0775 26.793H28.8902L28.5358 26.9188C27.6125 27.2463 26.583 27.0119 25.8927 26.3167L21.3242 21.7163Z" fill="#E5B591"/>
<path d="M22.9052 24.2578C22.7149 24.2578 22.5283 24.1807 22.3946 24.0471C22.2597 23.9122 22.1826 23.7255 22.1826 23.5352C22.1826 23.3449 22.2597 23.1595 22.3946 23.0246C22.562 22.8572 22.8113 22.7801 23.0461 22.8271C23.0931 22.8367 23.1377 22.8499 23.1822 22.868C23.2256 22.8861 23.2677 22.9089 23.3063 22.9342C23.346 22.9607 23.3834 22.9908 23.4159 23.0246C23.4496 23.0583 23.4797 23.0944 23.5062 23.1342C23.5327 23.1739 23.5544 23.2161 23.5724 23.2594C23.5905 23.3028 23.605 23.3485 23.6134 23.3943C23.623 23.4413 23.6278 23.4882 23.6278 23.5352C23.6278 23.5822 23.623 23.6304 23.6134 23.6773C23.605 23.7231 23.5905 23.7689 23.5724 23.8122C23.5544 23.8556 23.5327 23.8977 23.5062 23.9363C23.4797 23.976 23.4496 24.0133 23.4159 24.0471C23.2822 24.1807 23.0956 24.2578 22.9052 24.2578Z" fill="#333333"/>
<path d="M31.0947 24.2578C31.0477 24.2578 30.9995 24.253 30.9538 24.2446C30.908 24.2349 30.8622 24.2205 30.8189 24.2024C30.7743 24.1844 30.7334 24.1627 30.6936 24.1362C30.6539 24.1097 30.6166 24.0796 30.584 24.0471C30.5503 24.0133 30.5202 23.976 30.4937 23.9363C30.4672 23.8977 30.4455 23.8556 30.4275 23.8122C30.4094 23.7689 30.395 23.7231 30.3865 23.6773C30.3769 23.6304 30.3721 23.5822 30.3721 23.5352C30.3721 23.4882 30.3769 23.4413 30.3865 23.3943C30.395 23.3485 30.4094 23.3028 30.4275 23.2594C30.4455 23.2161 30.4672 23.1739 30.4937 23.1342C30.5202 23.0944 30.5503 23.0583 30.584 23.0246C30.6166 22.9908 30.6539 22.9607 30.6936 22.9342C30.7334 22.9089 30.7743 22.8861 30.8189 22.868C30.8622 22.8499 30.908 22.8367 30.9538 22.8271C31.1886 22.7801 31.4379 22.8572 31.6053 23.0246C31.639 23.0583 31.6692 23.0944 31.6957 23.1342C31.7221 23.1739 31.7438 23.2161 31.7619 23.2594C31.78 23.3028 31.7944 23.3485 31.8028 23.3943C31.8125 23.4413 31.8173 23.4882 31.8173 23.5352C31.8173 23.5822 31.8125 23.6304 31.8028 23.6773C31.7944 23.7231 31.78 23.7689 31.7619 23.8122C31.7438 23.8556 31.7221 23.8977 31.6957 23.9363C31.6692 23.976 31.639 24.0133 31.6053 24.0471C31.4716 24.1807 31.2851 24.2578 31.0947 24.2578Z" fill="#333333"/>
<path d="M24.2228 22.0774H21.5883C21.2165 22.0774 20.915 21.776 20.915 21.4042C20.915 21.0324 21.2165 20.731 21.5883 20.731H24.2228C24.5946 20.731 24.896 21.0324 24.896 21.4042C24.8959 21.776 24.5946 22.0774 24.2228 22.0774Z" fill="#A67C52"/>
<path d="M32.4122 22.0774H29.7777C29.4059 22.0774 29.1045 21.776 29.1045 21.4042C29.1045 21.0324 29.4059 20.731 29.7777 20.731H32.4122C32.784 20.731 33.0855 21.0324 33.0855 21.4042C33.0854 21.776 32.784 22.0774 32.4122 22.0774Z" fill="#A67C52"/>
<path d="M16.3418 23.0635L16.9849 28.1591C16.5682 27.0198 16.3418 25.7901 16.3418 24.5063C16.3419 24.5063 16.3419 23.0635 16.3418 23.0635Z" fill="#E5B591"/>
<path d="M37.6589 17.5413C37.648 18.0917 37.6047 18.6854 37.53 19.3298L35.8415 30.458L35.7909 30.7916L35.2032 31.3107L34.2891 32.1164L35.8475 19.7585C35.9812 18.6987 35.2622 17.722 34.2108 17.5341C31.4709 17.0451 28.6696 16.7982 25.8863 16.7982C23.103 16.7982 20.3017 17.0451 17.5618 17.5341C17.0608 17.6232 16.6345 17.8918 16.3418 18.2639V15.5939C16.3418 14.7568 16.4381 13.9427 16.6212 13.1611C18.6036 11.6183 21.2833 10.4115 23.5306 8.89284C25.8743 7.30912 23.5306 8.89284 26.3692 8.89284C29.2079 8.89284 29.9678 7.63068 32.3103 9.2132C35.9451 11.6689 37.577 13.373 37.6589 16.9608C37.6637 17.1487 37.6637 17.3426 37.6589 17.5413Z" fill="#E5B591"/>
<path d="M35.4027 31.0022L36.9614 18.6441C37.095 17.5845 36.3762 16.6076 35.3248 16.4201C32.5844 15.9313 29.7836 15.6834 27 15.6834C24.2163 15.6834 21.4155 15.9313 18.6751 16.4201C17.6238 16.6076 16.9049 17.5845 17.0385 18.6441L18.5972 31.0022L17.0948 29.6774L14.9285 17.8053C14.3149 12.4917 20.2912 10.7194 24.6447 7.77826C26.9878 6.19526 24.6447 7.77826 27.4828 7.77826C30.3208 7.77826 31.0812 6.51646 33.4242 8.09946C37.7777 11.0406 39.2567 12.9024 38.643 18.216L36.9049 29.6775L35.4027 31.0022Z" fill="#F75763"/>
<path d="M26.9999 4C24.341 4 21.8707 4.80836 19.8216 6.19265C15.8618 8.86775 13.7847 13.5786 14.3328 18.3257L15.4773 28.236C15.5722 29.0575 16.2678 29.6775 17.0948 29.6775L15.7242 18.8101C15.5023 17.0515 16.6974 15.4274 18.4425 15.1161C24.1029 14.1063 29.8971 14.1063 35.5575 15.1161C37.3025 15.4274 38.4977 17.0513 38.2758 18.8101L36.9051 29.6775C37.7322 29.6775 38.4278 29.0575 38.5227 28.236L39.6672 18.3257C40.2154 13.5785 38.1382 8.86775 34.1784 6.19265C32.1292 4.80836 29.6589 4 26.9999 4Z" fill="#73CDE5"/>
<path d="M36.9797 15.0036C30.4506 13.0834 23.5487 13.0834 17.0195 15.0036C14.7625 15.6675 13.3727 17.988 13.8508 20.2903L15.8025 31.7165C16.0992 33.4543 17.5942 34.7157 19.3574 34.7157H34.6418C36.405 34.7157 37.9 33.4543 38.1967 31.7165L40.1484 20.2903C40.6265 17.9882 39.2367 15.6676 36.9797 15.0036ZM17.3595 16.1591C20.5132 15.2315 23.7558 14.768 26.9997 14.768C30.2428 14.768 33.487 15.2317 36.64 16.1591C38.302 16.6479 39.3244 18.3588 38.9675 20.054L38.3316 23.7757C30.809 24.9734 23.1905 24.9733 15.6681 23.7758L15.0363 20.0767L15.0319 20.0541C14.675 18.3589 15.6974 16.6479 17.3595 16.1591ZM37.5307 28.463C35.825 28.7145 34.0948 28.9071 32.3716 29.0358L32.8796 25.6411C34.6289 25.4998 36.3757 25.2953 38.1176 25.0278L37.5307 28.463ZM15.8819 25.028C17.6252 25.2956 19.3734 25.5002 21.1242 25.6415L21.6323 29.036C19.9176 28.9086 18.1859 28.7159 16.4686 28.4629L15.8819 25.028ZM22.3555 25.7307C23.9025 25.8293 25.451 25.879 26.9997 25.879C28.5499 25.879 30.1 25.8291 31.6485 25.7303L31.142 29.115C28.3921 29.2732 25.6124 29.2731 22.8619 29.1149L22.3555 25.7307ZM27.0026 30.4404C28.3238 30.4404 29.645 30.4027 30.9599 30.3317L30.4842 33.5113H23.52L23.044 30.3316C24.3594 30.4027 25.6806 30.4404 27.0026 30.4404ZM16.9897 31.5138L16.6819 29.7117C18.391 29.9542 20.1122 30.1361 21.8149 30.2562L22.3021 33.5114H19.3574C18.1833 33.5113 17.1873 32.6713 16.9897 31.5138ZM37.0095 31.5138C36.8118 32.6713 35.8161 33.5113 34.6418 33.5113H31.7019L32.189 30.2559C33.9 30.1345 35.6195 29.9527 37.3174 29.7117L37.0095 31.5138Z" fill="#666666"/>
<path d="M18.4491 35.6318C18.4491 39.0946 15.642 41.9017 12.1792 41.9017H11.1387C11.1387 38.4389 13.9458 35.6318 17.4085 35.6318H18.4491Z" fill="#F75763"/>
<path d="M42.8612 41.9017H41.8206C38.3579 41.9017 35.5508 39.0946 35.5508 35.6318H36.5913C40.0541 35.6318 42.8612 38.4389 42.8612 41.9017Z" fill="#F75763"/>
<path d="M29.6207 9.85221C27.8814 9.61893 26.1187 9.61893 24.3795 9.85221C23.6295 9.95277 23.122 10.6688 23.2755 11.4096C23.2946 11.5022 23.3138 11.5948 23.333 11.6874C23.4709 12.353 24.0977 12.806 24.7715 12.7159C26.2507 12.5183 27.7496 12.5183 29.2287 12.7159C29.9024 12.806 30.5293 12.353 30.6672 11.6874C30.6863 11.5948 30.7055 11.5022 30.7247 11.4096C30.8783 10.6688 30.3707 9.95277 29.6207 9.85221Z" fill="#59B2C6"/>
</g>
</svg>
