<svg width="30" height="30" viewBox="0 0 30 30" fill="none" xmlns="http://www.w3.org/2000/svg">
<g clip-path="url(#clip0)">
<path d="M4.37189 6.85663C7.78365 3.41 12.8779 3.74049 15.0278 3.74049C17.1776 3.74049 22.2719 3.41 25.6837 6.85663C29.0955 10.3033 28.9552 23.1927 28.9552 23.1927H23.4012L15.0278 20.1987L5.84142 23.1927H1.10035C1.10035 23.1927 0.960127 10.3033 4.37189 6.85663Z" fill="#98CE53"/>
<path d="M16.7856 3.74019C16.5313 3.74019 16.2355 3.73562 15.9066 3.73316C16.2381 3.7307 16.6034 3.73046 16.9951 3.73937C16.9225 3.73984 16.8526 3.74019 16.7856 3.74019Z" fill="#EEF0F0"/>
<path d="M17.9976 22.065L15.0276 20.1987L11.7692 22.065H7.10692C7.13939 18.8489 7.37284 9.68141 8.96402 6.85663C10.9054 3.41 13.8042 3.74049 15.0276 3.74049C16.2509 3.74049 19.1497 3.41 21.0911 6.85663C22.6823 9.68141 22.9158 18.8489 22.9482 22.065H17.9976Z" fill="#FAFFFD"/>
<path d="M1.04492 23.2964C4.50333 19.8027 11.8448 18.3723 14.9999 18.3723C18.1549 18.3723 25.4964 19.8027 28.9548 23.2964C28.9548 23.2964 31.3817 30.1613 26.5278 27.4644C21.6739 24.7675 20.2178 23.4194 14.9999 23.4194C9.78192 23.4194 8.32575 24.7675 3.47188 27.4644C-1.38198 30.1613 1.04492 23.2964 1.04492 23.2964Z" fill="#98CE53"/>
<path d="M11.5635 15.4021H17.938C18.1918 15.4021 18.3975 15.1964 18.3975 14.9426V12.7322C18.3975 12.4784 18.1918 12.2727 17.938 12.2727H11.5635C11.3097 12.2727 11.104 12.4784 11.104 12.7322V14.9426C11.104 15.1964 11.3098 15.4021 11.5635 15.4021Z" fill="#7191F0"/>
<path d="M11.5633 12.2727H13.3213C13.0676 12.2727 12.8618 12.4784 12.8618 12.7322V14.9426C12.8618 15.1963 13.0676 15.4021 13.3213 15.4021H11.5633C11.3096 15.4021 11.1039 15.1964 11.1039 14.9426V12.7322C11.1039 12.4784 11.3096 12.2727 11.5633 12.2727Z" fill="#6084F0"/>
<path d="M13.5398 3.73674H16.46V3.36488C16.46 2.55851 15.8062 1.90479 14.9999 1.90479C14.1935 1.90479 13.5398 2.55851 13.5398 3.36488V3.73674H13.5398Z" fill="#5BA4A4"/>
<path d="M0.118406 25.1413C0.298244 24.0967 0.617254 23.1882 0.630732 23.15C0.638525 23.128 0.648602 23.107 0.659678 23.0866C0.652588 21.7285 0.690441 9.95053 4.05919 6.54732C5.48495 5.10698 7.36396 4.13559 9.64407 3.66019C10.7496 3.42966 11.8215 3.34059 12.7583 3.30866C12.8824 3.30731 12.9963 3.30614 13.102 3.30496C13.1338 2.28524 13.9727 1.46533 15 1.46533C16.025 1.46533 16.8623 2.28137 16.8979 3.29782C19.2655 3.34112 22.6171 3.69505 25.2882 5.90075C25.4754 6.05533 25.5018 6.33232 25.3473 6.51949C25.1927 6.70659 24.9158 6.73308 24.7285 6.57855C23.1461 5.27176 21.2722 4.66907 19.5384 4.39448C20.2242 4.89046 20.8916 5.60688 21.474 6.64084C22.1833 7.90006 23.0784 11.1626 23.3356 19.5428C25.0433 20.1508 26.9787 21.0431 28.5102 22.3005C28.4692 19.5446 28.1534 11.1231 25.8587 7.76505C25.7217 7.56464 25.7732 7.29117 25.9736 7.15422C26.174 7.01728 26.4475 7.06873 26.5844 7.26913C29.4875 11.5176 29.3996 22.7224 29.3944 23.1974C29.3944 23.2047 29.3935 23.212 29.3931 23.2193C29.4722 23.4539 29.7277 24.2475 29.8816 25.1413C30.1429 26.6592 29.9712 27.686 29.3712 28.1932C28.7208 28.7429 27.7211 28.6302 26.3146 27.8487C25.6022 27.4529 24.9506 27.079 24.3757 26.7492C21.0215 24.8249 19.3379 23.8589 15 23.8589C10.6622 23.8589 8.97852 24.8248 5.62435 26.7492C5.04945 27.079 4.39783 27.4528 3.68551 27.8487C2.86139 28.3065 2.1769 28.5348 1.62057 28.5348C1.22738 28.5348 0.898113 28.4208 0.628855 28.1932C0.0288086 27.686 -0.142883 26.6592 0.118406 25.1413ZM15 2.34431C14.4606 2.34431 14.0176 2.76504 13.9819 3.29559C14.6921 3.2885 14.6172 3.29225 16.0179 3.29307C15.9808 2.76375 15.5386 2.34431 15 2.34431ZM20.7081 7.07219C19.2606 4.50242 17.2556 4.19413 15.904 4.1728C15.7831 4.17374 14.2684 4.17368 14.1461 4.1728C12.7947 4.19466 10.7926 4.50552 9.3468 7.07224C8.79786 8.04679 8.36024 9.95797 8.0461 12.7526C8.01897 12.9939 7.80069 13.1673 7.56026 13.1403C7.31907 13.1131 7.1455 12.8956 7.17263 12.6544C7.50002 9.74198 7.97391 7.71876 8.58104 6.6409C9.16503 5.60412 9.83446 4.88653 10.5222 4.39038C8.54559 4.70083 6.3938 5.43835 4.68391 7.16577C3.36058 8.50263 2.39594 11.6804 1.89428 16.3557C1.63375 18.7837 1.56326 21.0405 1.54498 22.2553C3.08447 21.008 5.01921 20.1244 6.71996 19.5233C6.77844 17.6347 6.87607 15.8804 7.01061 14.3046C7.0313 14.0628 7.24459 13.8833 7.48584 13.9042C7.72768 13.9248 7.90705 14.1375 7.88636 14.3794C7.7609 15.849 7.66785 17.4771 7.60902 19.2265C7.74549 19.1835 7.87962 19.1424 8.01059 19.1033C10.9054 18.2395 13.585 17.933 14.9999 17.933C16.4149 17.933 19.0946 18.2394 21.9894 19.1031C22.1382 19.1475 22.2909 19.1945 22.4467 19.2439C22.2388 13.0102 21.6242 8.69858 20.7081 7.07219ZM1.19638 27.522C1.5206 27.7959 2.25296 27.639 3.25857 27.0803C3.96561 26.6874 4.61447 26.3151 5.18692 25.9868C8.67638 23.9848 10.4278 22.98 14.9999 22.98C19.5721 22.98 21.3236 23.9848 24.813 25.9868C25.3855 26.3151 26.0343 26.6874 26.7414 27.0803C27.747 27.639 28.4793 27.7959 28.8036 27.522C29.4146 27.0058 29.0434 24.9149 28.5728 23.5361C25.1905 20.1989 18.081 18.8119 14.9999 18.8119C11.9189 18.8119 4.80949 20.1989 1.42714 23.5361C0.956537 24.9151 0.585375 27.0058 1.19638 27.522Z" fill="#5A5889"/>
<path d="M17.938 15.8416H11.5635C11.0678 15.8416 10.6645 15.4383 10.6645 14.9427V12.7322C10.6645 12.2365 11.0678 11.8333 11.5635 11.8333H17.938C18.4337 11.8333 18.8369 12.2365 18.8369 12.7322V14.9427C18.8369 15.4384 18.4337 15.8416 17.938 15.8416ZM17.9579 12.7323C17.9579 12.7213 17.949 12.7123 17.938 12.7123H11.5635C11.5525 12.7123 11.5435 12.7213 11.5435 12.7323V14.9427C11.5435 14.9537 11.5525 14.9627 11.5635 14.9627H17.938C17.949 14.9627 17.9579 14.9537 17.9579 14.9427V12.7323Z" fill="#5A5889"/>
</g>
<defs>
<clipPath id="clip0">
<rect width="30" height="30" fill="white" transform="matrix(-1 0 0 1 30 0)"/>
</clipPath>
</defs>
</svg>
