<svg width="24" height="22" viewBox="0 0 24 22" fill="none" xmlns="http://www.w3.org/2000/svg">
<path d="M0.0947247 19.1131C0.238596 18.2774 0.493803 17.5506 0.504585 17.5201C0.51082 17.5025 0.518881 17.4857 0.527742 17.4694C0.52207 16.3829 0.552353 6.96052 3.24735 4.23795C4.38796 3.08568 5.89116 2.30857 7.71526 1.92825C8.59967 1.74383 9.45717 1.67257 10.2066 1.64702C10.306 1.64594 10.397 1.64501 10.4816 1.64407C10.5071 0.828288 11.1782 0.172363 12 0.172363C12.82 0.172363 13.4899 0.825194 13.5183 1.63835C15.4124 1.67299 18.0937 1.95614 20.2306 3.7207C20.3803 3.84436 20.4014 4.06596 20.2778 4.21569C20.1542 4.36537 19.9326 4.38656 19.7828 4.26294C18.5169 3.2175 17.0178 2.73536 15.6307 2.51568C16.1793 2.91246 16.7133 3.4856 17.1792 4.31277C17.7467 5.32015 18.4627 7.93016 18.6685 14.6344C20.0347 15.1208 21.5829 15.8345 22.8082 16.8405C22.7754 14.6358 22.5227 7.89861 20.6869 5.21214C20.5774 5.05181 20.6185 4.83303 20.7789 4.72348C20.9392 4.61392 21.158 4.65508 21.2675 4.8154C23.59 8.2142 23.5197 17.178 23.5155 17.558C23.5155 17.5639 23.5148 17.5697 23.5145 17.5755C23.5777 17.7632 23.7822 18.3981 23.9053 19.1131C24.1143 20.3275 23.977 21.1489 23.497 21.5547C22.9767 21.9944 22.1769 21.9042 21.0517 21.279C20.4817 20.9624 19.9605 20.6633 19.5006 20.3994C16.8172 18.86 15.4703 18.0872 12 18.0872C8.52973 18.0872 7.18281 18.8599 4.49948 20.3994C4.03956 20.6633 3.51826 20.9624 2.94841 21.279C2.28911 21.6453 1.74152 21.828 1.29646 21.828C0.981901 21.828 0.718491 21.7367 0.503084 21.5547C0.0230465 21.1489 -0.114307 20.3274 0.0947247 19.1131ZM12 0.875542C11.5685 0.875542 11.2141 1.21213 11.1855 1.63657C11.7537 1.6309 11.6937 1.6339 12.8143 1.63455C12.7847 1.2111 12.4309 0.875542 12 0.875542ZM16.5665 4.65785C15.4085 2.60203 13.8045 2.3554 12.7232 2.33834C12.6265 2.33909 11.4147 2.33904 11.3169 2.33834C10.2358 2.35583 8.63408 2.60452 7.47744 4.65789C7.03828 5.43753 6.6882 6.96648 6.43688 9.20221C6.41518 9.39521 6.24055 9.53397 6.04821 9.51231C5.85526 9.4906 5.7164 9.31659 5.73811 9.12364C6.00002 6.79368 6.37912 5.1751 6.86483 4.31282C7.33203 3.4834 7.86757 2.90932 8.41773 2.5124C6.83647 2.76076 5.11504 3.35078 3.74713 4.73271C2.68847 5.8022 1.91675 8.34442 1.51543 12.0846C1.307 14.0271 1.25061 15.8325 1.23598 16.8043C2.46758 15.8065 4.01537 15.0996 5.37597 14.6187C5.42275 13.1079 5.50086 11.7044 5.60849 10.4438C5.62504 10.2503 5.79567 10.1068 5.98867 10.1234C6.18214 10.1399 6.32564 10.3101 6.30909 10.5036C6.20872 11.6793 6.13428 12.9817 6.08721 14.3813C6.19639 14.3469 6.3037 14.314 6.40847 14.2827C8.72432 13.5917 10.868 13.3465 12 13.3465C13.1319 13.3465 15.2756 13.5916 17.5915 14.2826C17.7105 14.3181 17.8327 14.3557 17.9573 14.3952C17.7911 9.40824 17.2994 5.95896 16.5665 4.65785ZM0.957102 21.0177C1.21648 21.2368 1.80237 21.1113 2.60685 20.6643C3.17249 20.35 3.69158 20.0522 4.14953 19.7895C6.94111 18.1879 8.34226 17.3841 12 17.3841C15.6577 17.3841 17.0589 18.1879 19.8504 19.7895C20.3084 20.0522 20.8275 20.35 21.3931 20.6643C22.1976 21.1113 22.7834 21.2368 23.0429 21.0177C23.5317 20.6048 23.2347 18.932 22.8583 17.8289C20.1524 15.1592 14.4648 14.0496 12 14.0496C9.53513 14.0496 3.84759 15.1592 1.14171 17.8289C0.76523 18.9321 0.4683 20.6048 0.957102 21.0177Z" fill="#5A5889"/>
</svg>
