<svg width="34" height="30" viewBox="0 0 34 30" fill="none" xmlns="http://www.w3.org/2000/svg">
<path d="M31.5032 0H2.01084C1.47753 0 0.966068 0.211856 0.588962 0.588962C0.211856 0.966068 0 1.47753 0 2.01084V23.8553C0 24.3886 0.211856 24.9001 0.588962 25.2772C0.966068 25.6543 1.47753 25.8661 2.01084 25.8661H8.04337V27.9909C8.04372 28.3884 8.16184 28.7768 8.38282 29.1072C8.6038 29.4375 8.91772 29.695 9.28494 29.847C9.65215 29.9991 10.0562 30.0389 10.446 29.9615C10.8359 29.884 11.194 29.6928 11.4752 29.4119L15.021 25.8661H31.5032C32.0365 25.8661 32.548 25.6543 32.9251 25.2772C33.3022 24.9001 33.514 24.3886 33.514 23.8553V2.01084C33.514 1.47753 33.3022 0.966068 32.9251 0.588962C32.548 0.211856 32.0365 0 31.5032 0Z" fill="#979BAA"/>
</svg>
