<svg width="34" height="34" viewBox="0 0 34 34" fill="none" xmlns="http://www.w3.org/2000/svg">
<g clip-path="url(#clip0)">
<path d="M4.95435 7.77081C8.82102 3.86463 14.5945 4.23919 17.031 4.23919C19.4675 4.23919 25.2411 3.86463 29.1077 7.77081C32.9744 11.677 32.8155 26.285 32.8155 26.285H26.5209L17.031 22.8919L6.61982 26.285H1.24661C1.24661 26.285 1.08769 11.677 4.95435 7.77081Z" fill="#5BA4A4"/>
<path d="M19.0242 4.23913C18.7361 4.23913 18.4008 4.23395 18.0281 4.23116C18.4038 4.22837 18.8178 4.2281 19.2617 4.2382C19.1794 4.23873 19.1002 4.23913 19.0242 4.23913Z" fill="#EEF0F0"/>
<path d="M20.3971 25.0069L17.0311 22.8919L13.3382 25.0069H8.05432C8.09111 21.362 8.35569 10.9722 10.159 7.77081C12.3593 3.86463 15.6446 4.23919 17.0311 4.23919C18.4175 4.23919 21.7028 3.86463 23.9031 7.77081C25.7064 10.9722 25.971 21.362 26.0078 25.0069H20.3971Z" fill="#FAFFFD"/>
<path d="M1.18509 26.4025C5.10462 22.4429 13.425 20.8218 17.0007 20.8218C20.5764 20.8218 28.8967 22.4429 32.8163 26.4025C32.8163 26.4025 35.5668 34.1827 30.0657 31.1262C24.5646 28.0696 22.9143 26.5418 17.0007 26.5418C11.087 26.5418 9.43669 28.0696 3.93564 31.1262C-1.5654 34.1827 1.18509 26.4025 1.18509 26.4025Z" fill="#5BA4A4"/>
<path d="M13.1045 17.4553H20.3289C20.6165 17.4553 20.8496 17.2222 20.8496 16.9346V14.4294C20.8496 14.1418 20.6165 13.9087 20.3289 13.9087H13.1045C12.8168 13.9087 12.5837 14.1418 12.5837 14.4294V16.9346C12.5837 17.2222 12.8169 17.4553 13.1045 17.4553Z" fill="#7191F0"/>
<path d="M1.18434 26.4025C5.10386 22.4429 13.4242 20.8218 16.9999 20.8218C17.3001 20.8218 17.6344 20.8335 17.9961 20.8568C14.7676 21.0646 9.30584 22.2165 5.45983 24.6149C3.7684 25.6696 2.65428 27.4625 2.50712 29.4504C2.4423 30.3261 2.54072 31.1552 3.02161 31.567C-1.242 33.2659 1.18434 26.4025 1.18434 26.4025Z" fill="#5BA4A4"/>
<path d="M13.1053 13.9087H15.0977C14.8101 13.9087 14.5769 14.1419 14.5769 14.4294V16.9346C14.5769 17.2221 14.8101 17.4553 15.0977 17.4553H13.1053C12.8177 17.4553 12.5846 17.2222 12.5846 16.9346V14.4294C12.5846 14.1419 12.8177 13.9087 13.1053 13.9087Z" fill="#6084F0"/>
<path d="M15.3448 4.23491H18.6543V3.81346C18.6543 2.89958 17.9134 2.15869 16.9995 2.15869C16.0856 2.15869 15.3447 2.89958 15.3447 3.81346V4.23491H15.3448Z" fill="#5BA4A4"/>
<path d="M0.134193 28.4934C0.338009 27.3095 0.699554 26.2799 0.714828 26.2366C0.723663 26.2117 0.735085 26.1879 0.747635 26.1648C0.739597 24.6255 0.782501 11.2772 4.60042 7.42023C6.21627 5.78784 8.34582 4.68694 10.9299 4.14815C12.1829 3.88689 13.3977 3.78594 14.4594 3.74975C14.6001 3.74822 14.7291 3.74689 14.8489 3.74556C14.885 2.58987 15.8358 1.66064 17 1.66064C18.1616 1.66064 19.1106 2.58549 19.1509 3.73746C21.8343 3.78654 25.6327 4.18766 28.66 6.68745C28.8721 6.86264 28.902 7.17657 28.7269 7.38869C28.5517 7.60074 28.2379 7.63076 28.0257 7.45563C26.2322 5.97459 24.1085 5.29155 22.1435 4.98035C22.9207 5.54245 23.6771 6.3544 24.3372 7.52623C25.1411 8.95334 26.1555 12.6509 26.447 22.1485C28.3824 22.8376 30.5758 23.8487 32.3116 25.2738C32.2651 22.1505 31.9072 12.6062 29.3065 8.80033C29.1513 8.5732 29.2096 8.26326 29.4367 8.10806C29.6639 7.95285 29.9738 8.01116 30.129 8.23829C33.4192 13.0532 33.3195 25.752 33.3137 26.2903C33.3136 26.2986 33.3127 26.3068 33.3122 26.3151C33.4018 26.581 33.6914 27.4804 33.8658 28.4934C34.162 30.2137 33.9674 31.3775 33.2874 31.9522C32.5503 32.5752 31.4172 32.4475 29.8232 31.5617C29.0158 31.1132 28.2774 30.6895 27.6258 30.3157C23.8244 28.1348 21.9163 27.0401 17 27.0401C12.0838 27.0401 10.1757 28.1347 6.37427 30.3157C5.72271 30.6894 4.98421 31.1131 4.17691 31.5617C3.24291 32.0807 2.46716 32.3394 1.83665 32.3394C1.39103 32.3394 1.01786 32.2102 0.712704 31.9522C0.03265 31.3774 -0.161934 30.2137 0.134193 28.4934ZM17 2.65681C16.3887 2.65681 15.8866 3.13365 15.8461 3.73494C16.651 3.7269 16.5661 3.73115 18.1536 3.73208C18.1116 3.13219 17.6104 2.65681 17 2.65681ZM23.4692 8.01508C21.8286 5.10268 19.5564 4.75329 18.0245 4.72911C17.8875 4.73018 16.1709 4.73011 16.0323 4.72911C14.5007 4.75388 12.2316 5.1062 10.593 8.01515C9.9709 9.11963 9.47495 11.2856 9.11891 14.4529C9.08817 14.7263 8.84078 14.9229 8.5683 14.8922C8.29495 14.8615 8.09824 14.615 8.12899 14.3416C8.50002 11.0408 9.03709 8.74786 9.72518 7.52629C10.387 6.35128 11.1457 5.538 11.9251 4.9757C9.685 5.32755 7.24631 6.1634 5.30843 8.12114C3.80866 9.63625 2.7154 13.2377 2.14685 18.5364C1.85159 21.2882 1.7717 23.8459 1.75098 25.2226C3.49574 23.809 5.68844 22.8076 7.61596 22.1263C7.68224 19.9859 7.79288 17.9977 7.94536 16.2118C7.9688 15.9378 8.21054 15.7344 8.48395 15.758C8.75803 15.7814 8.96132 16.0225 8.93788 16.2966C8.79569 17.9622 8.69023 19.8073 8.62355 21.7899C8.77822 21.7412 8.93024 21.6946 9.07867 21.6503C12.3595 20.6714 15.3963 20.324 16.9999 20.324C18.6036 20.324 21.6405 20.6712 24.9213 21.6501C25.0899 21.7005 25.263 21.7537 25.4396 21.8097C25.204 14.7448 24.5075 9.85833 23.4692 8.01508ZM1.3559 31.1915C1.72335 31.502 2.55336 31.3241 3.69304 30.6909C4.49436 30.2457 5.22974 29.8238 5.87851 29.4516C9.83323 27.1827 11.8182 26.0439 16.9999 26.0439C22.1817 26.0439 24.1667 27.1827 28.1214 29.4516C28.7702 29.8238 29.5056 30.2457 30.3069 30.6909C31.4466 31.3242 32.2765 31.5019 32.6441 31.1915C33.3365 30.6066 32.9158 28.2369 32.3825 26.6741C28.5492 22.892 20.4918 21.3201 16.9999 21.3201C13.5081 21.3201 5.45075 22.892 1.61742 26.6741C1.08408 28.237 0.663425 30.6066 1.3559 31.1915Z" fill="#5A5889"/>
<path d="M20.3288 17.9535H13.1044C12.5426 17.9535 12.0856 17.4964 12.0856 16.9346V14.4295C12.0856 13.8677 12.5426 13.4106 13.1044 13.4106H20.3288C20.8907 13.4106 21.3477 13.8677 21.3477 14.4295V16.9346C21.3477 17.4965 20.8907 17.9535 20.3288 17.9535ZM20.3515 14.4295C20.3515 14.417 20.3413 14.4069 20.3288 14.4069H13.1044C13.0919 14.4069 13.0818 14.417 13.0818 14.4295V16.9347C13.0818 16.9472 13.0919 16.9573 13.1044 16.9573H20.3288C20.3413 16.9573 20.3515 16.9472 20.3515 16.9347V14.4295Z" fill="#5A5889"/>
</g>
<defs>
<clipPath id="clip0">
<rect width="34" height="34" fill="white" transform="matrix(-1 0 0 1 34 0)"/>
</clipPath>
</defs>
</svg>
