<svg width="70" height="70" viewBox="0 0 70 70" fill="none" xmlns="http://www.w3.org/2000/svg">
<path d="M58.7708 35C58.7708 21.8928 48.1072 11.2292 35 11.2292C21.8928 11.2292 11.2292 21.8928 11.2292 35C11.2292 41.1718 13.5941 46.8013 17.4646 51.0313L12.4094 56.0865C11.6721 56.8237 12.2045 58.0781 13.2344 58.0781C13.5329 58.0781 13.8316 57.9642 14.0594 57.7364L19.1218 52.674C23.3578 56.4834 28.9335 58.7713 35.0013 58.771C48.1081 58.7701 58.7708 48.1068 58.7708 35ZM46.4712 33.8333H36.1667V14.6574C39.4145 17.2216 45.9982 23.6426 46.4712 33.8333ZM33.8333 13.5946V33.8333H23.5304C23.8647 26.7881 27.1701 21.562 29.968 18.362C30.3921 17.877 30.3427 17.1399 29.8576 16.7159C29.3726 16.2916 28.6355 16.3412 28.2115 16.8262C25.1495 20.3281 21.5298 26.0662 21.195 33.8333H13.5946C14.1817 22.9394 22.9394 14.1817 33.8333 13.5946ZM13.5946 36.1667H21.194C21.6154 46.0739 27.3254 52.7339 31.1009 56.0811C21.5704 54.3225 14.135 46.1952 13.5946 36.1667ZM23.528 36.1667H33.8333V55.3311C28.0605 50.7485 23.89 44.0313 23.528 36.1667ZM36.1667 56.4054V36.1667H46.4694C46.1242 43.4569 42.6087 48.8162 39.6337 52.0838C39.1999 52.5602 39.2346 53.2981 39.711 53.7318C40.1874 54.1657 40.9254 54.131 41.3591 53.6546C44.6125 50.0814 48.4595 44.2008 48.805 36.1667H52.5C53.1443 36.1667 53.6667 35.6443 53.6667 35C53.6667 34.3557 53.1443 33.8333 52.5 33.8333H48.8062C48.3855 23.9285 42.678 17.2677 38.9041 13.9199C48.867 15.7606 56.4375 24.5124 56.4375 35C56.4375 46.4292 47.4469 55.7974 36.1667 56.4054ZM61.2407 59.7365L55.5854 54.0813C55.1298 53.6257 54.3912 53.6257 53.9356 54.0813C53.4799 54.5368 53.4799 55.2755 53.9356 55.7311L59.6223 61.4179C57.2947 65.1404 59.9864 70 64.3854 70C67.4813 70 70 67.4813 70 64.3854C70 59.8796 64.9394 57.2263 61.2407 59.7365ZM64.3854 67.6667C62.5761 67.6667 61.1042 66.1948 61.1042 64.3854C61.1042 62.5761 62.5761 61.1042 64.3854 61.1042C66.1948 61.1042 67.6667 62.5761 67.6667 64.3854C67.6667 66.1948 66.1948 67.6667 64.3854 67.6667ZM8.582 10.3778L14.2688 16.0646C14.7245 16.5203 15.463 16.5201 15.9186 16.0646C16.3743 15.609 16.3743 14.8703 15.9186 14.4148L10.2635 8.75933C12.7735 5.06056 10.1201 0 5.61458 0C2.51869 0 0 2.51869 0 5.61458C0 10.0199 4.86617 12.7011 8.582 10.3778ZM5.61458 2.33333C7.42394 2.33333 8.89583 3.80523 8.89583 5.61458C8.89583 7.42394 7.42394 8.89583 5.61458 8.89583C3.80523 8.89583 2.33333 7.42394 2.33333 5.61458C2.33333 3.80523 3.80523 2.33333 5.61458 2.33333ZM5.61458 58.7708C2.51869 58.7708 0 61.2895 0 64.3854C0 67.4813 2.51869 70 5.61458 70C8.71048 70 11.2292 67.4813 11.2292 64.3854C11.2292 61.2895 8.71048 58.7708 5.61458 58.7708ZM5.61458 67.6667C3.80523 67.6667 2.33333 66.1948 2.33333 64.3854C2.33333 62.5761 3.80523 61.1042 5.61458 61.1042C7.42394 61.1042 8.89583 62.5761 8.89583 64.3854C8.89583 66.1948 7.42394 67.6667 5.61458 67.6667ZM55.5854 15.9187L61.2407 10.2635C64.9394 12.7735 70 10.1201 70 5.61458C70 2.51869 67.4813 0 64.3854 0C59.9801 0 57.2989 4.86617 59.6222 8.582L53.9354 14.2688C53.4797 14.7244 53.4797 15.463 53.9354 15.9186C54.3912 16.3743 55.1298 16.3743 55.5854 15.9187ZM64.3854 2.33333C66.1948 2.33333 67.6667 3.80523 67.6667 5.61458C67.6667 7.42394 66.1948 8.89583 64.3854 8.89583C62.5761 8.89583 61.1042 7.42394 61.1042 5.61458C61.1042 3.80523 62.5761 2.33333 64.3854 2.33333Z" fill="#2E58FF"/>
</svg>
