<svg width="113" height="138" viewBox="0 0 113 138" fill="none" xmlns="http://www.w3.org/2000/svg">
<path d="M85.2905 53.5103H31.7804V30.9797H85.2907V0H0.800781V84.4897H54.3111V138H112.046V107.02H85.2907V53.5103H85.2905ZM58.5354 4.22436H81.0661V26.755H58.5354V4.22436ZM58.5354 84.4897H81.0661V107.02H58.5354V84.4897ZM31.7804 4.22436H54.3111V26.755H31.7804V4.22436ZM5.02541 28.8673V4.22436H27.5561V26.755H11.3621V30.9794H27.5561V53.51H5.02541V28.8673ZM27.5558 80.2653H5.02541V57.7347H27.5561V80.2653H27.5558ZM31.7804 80.2653V57.7347H81.0661V80.2653H58.5354V64.0714H54.3111V80.2653H31.7804ZM107.821 111.245V133.776H85.2905V117.582H81.0661V133.776H58.5354V111.245H107.821Z" fill="#1E1D66"/>
</svg>
