<svg width="31" height="31" viewBox="0 0 31 31" fill="none" xmlns="http://www.w3.org/2000/svg">
<path d="M20.0683 15.6947H10.9316V14.3652C10.9316 11.8422 12.977 9.79688 15.5 9.79688C18.023 9.79688 20.0683 11.8422 20.0683 14.3652V15.6947H20.0683Z" fill="#D1E7FF"/>
<path d="M20.0687 16.5327H10.932C10.4691 16.5327 10.0938 16.1573 10.0938 15.6944V14.3649C10.0938 11.3838 12.5191 8.95825 15.5003 8.95825C18.4814 8.95825 20.9068 11.3838 20.9068 14.3649V15.6944C20.9069 16.1574 20.5316 16.5327 20.0687 16.5327ZM11.7703 14.8562H19.2304V14.365C19.2304 12.3081 17.5571 10.6349 15.5003 10.6349C13.4436 10.6349 11.7703 12.3082 11.7703 14.365V14.8562Z" fill="#2E58FF"/>
<path d="M15.5002 9.75894C17.4053 9.75894 18.9496 8.21458 18.9496 6.30952C18.9496 4.40446 17.4053 2.86011 15.5002 2.86011C13.5951 2.86011 12.0508 4.40446 12.0508 6.30952C12.0508 8.21458 13.5951 9.75894 15.5002 9.75894Z" fill="#D1E7FF"/>
<path d="M15.5007 10.5975C13.1364 10.5975 11.2129 8.67395 11.2129 6.30954C11.2129 3.94524 13.1364 2.02173 15.5007 2.02173C17.865 2.02173 19.7885 3.94524 19.7885 6.30954C19.7886 8.67389 17.865 10.5975 15.5007 10.5975ZM15.5007 3.69815C14.0608 3.69815 12.8894 4.86961 12.8894 6.30948C12.8894 7.74934 14.0608 8.92086 15.5007 8.92086C16.9406 8.92086 18.112 7.74934 18.112 6.30948C18.112 4.86961 16.9406 3.69815 15.5007 3.69815Z" fill="#2E58FF"/>
<path d="M30.1612 28.9784H22.4594C21.9965 28.9784 21.6211 28.603 21.6211 28.1401V27.0194C21.6211 24.4338 23.7247 22.3303 26.3103 22.3303C26.7731 22.3303 27.1485 22.7057 27.1485 23.1686C27.1485 23.6315 26.7731 24.0069 26.3103 24.0069C24.6491 24.0069 23.2976 25.3583 23.2976 27.0194V27.3018H29.3229V27.0194C29.3229 26.7735 29.2932 26.5289 29.2349 26.2928C29.1237 25.8434 29.3979 25.389 29.8474 25.2778C30.2964 25.1665 30.7511 25.4409 30.8623 25.8904C30.9532 26.2582 30.9994 26.638 30.9994 27.0196V28.1402C30.9994 28.6031 30.6242 28.9784 30.1612 28.9784Z" fill="#2E58FF"/>
<path d="M26.3085 24.0068C24.2429 24.0068 22.5625 22.3263 22.5625 20.2607C22.5625 18.1951 24.243 16.5146 26.3085 16.5146C28.374 16.5146 30.0546 18.1952 30.0546 20.2607C30.0547 22.3264 28.3742 24.0068 26.3085 24.0068ZM26.3085 18.1911C25.1673 18.1911 24.239 19.1194 24.239 20.2606C24.239 21.4018 25.1673 22.3302 26.3085 22.3302C27.4497 22.3302 28.3781 21.4018 28.3781 20.2606C28.3781 19.1194 27.4498 18.1911 26.3085 18.1911Z" fill="#2E58FF"/>
<path d="M8.54008 28.9783H0.838271C0.375391 28.9783 0 28.603 0 28.1401V27.0194C0 24.4338 2.10358 22.3303 4.68911 22.3303C5.15199 22.3303 5.52738 22.7057 5.52738 23.1686C5.52738 23.6315 5.15199 24.0069 4.68911 24.0069C3.02795 24.0069 1.67654 25.3583 1.67654 27.0194V27.3018H7.70187V27.0194C7.70187 26.7735 7.6722 26.5289 7.61377 26.2928C7.50273 25.8434 7.77688 25.389 8.22638 25.2778C8.67546 25.1665 9.13017 25.4409 9.24133 25.8904C9.33227 26.2582 9.37841 26.6381 9.37841 27.0196V28.1402C9.37835 28.603 9.00296 28.9783 8.54008 28.9783Z" fill="#2E58FF"/>
<path d="M4.68744 24.0068C2.62183 24.0068 0.941406 22.3263 0.941406 20.2607C0.941406 18.1951 2.62195 16.5146 4.68744 16.5146C6.75294 16.5146 8.43348 18.1952 8.43348 20.2607C8.43348 22.3264 6.75294 24.0068 4.68744 24.0068ZM4.68744 18.1911C3.54626 18.1911 2.61789 19.1194 2.61789 20.2606C2.61789 21.4018 3.54626 22.3302 4.68744 22.3302C5.82863 22.3302 6.757 21.4018 6.757 20.2606C6.757 19.1194 5.82863 18.1911 4.68744 18.1911Z" fill="#2E58FF"/>
<path d="M15.5004 23.6476C15.0375 23.6476 14.6621 23.2722 14.6621 22.8093V18.5394C14.6621 18.0766 15.0375 17.7012 15.5004 17.7012C15.9633 17.7012 16.3387 18.0766 16.3387 18.5394V22.8093C16.3387 23.2723 15.9633 23.6476 15.5004 23.6476Z" fill="#2E58FF"/>
<path d="M21.1576 23.6477H9.84413C9.38125 23.6477 9.00586 23.2723 9.00586 22.8095C9.00586 22.3466 9.38125 21.9712 9.84413 21.9712H21.1576C21.6204 21.9712 21.9958 22.3466 21.9958 22.8095C21.9958 23.2723 21.6204 23.6477 21.1576 23.6477Z" fill="#2E58FF"/>
</svg>
