<svg width="90" height="91" viewBox="0 0 90 91" fill="none" xmlns="http://www.w3.org/2000/svg">
<path d="M58.2632 46.0715H31.7373V42.1688C31.7373 34.7624 37.6754 28.7585 45.0002 28.7585C52.3251 28.7585 58.263 34.7626 58.263 42.1688V46.0715H58.2632Z" fill="#D1E7FF"/>
<path d="M58.2631 48.5319H31.7374C30.3936 48.5319 29.3037 47.43 29.3037 46.0712V42.1685C29.3037 33.4174 36.3451 26.2974 45.0001 26.2974C53.655 26.2974 60.6964 33.4174 60.6964 42.1685V46.0712C60.6966 47.4303 59.6071 48.5319 58.2631 48.5319ZM34.1711 43.6107H55.8294V42.1687C55.8294 36.1309 50.9714 31.219 45.0003 31.219C39.0291 31.219 34.1711 36.1311 34.1711 42.1687V43.6107Z" fill="#2E58FF"/>
<path d="M44.9998 28.6467C50.5306 28.6467 55.0142 24.1132 55.0142 18.521C55.0142 12.9287 50.5306 8.39526 44.9998 8.39526C39.469 8.39526 34.9854 12.9287 34.9854 18.521C34.9854 24.1132 39.469 28.6467 44.9998 28.6467Z" fill="#D1E7FF"/>
<path d="M45.0002 31.1092C38.1362 31.1092 32.5518 25.4628 32.5518 18.5221C32.5518 11.5817 38.1362 5.9353 45.0002 5.9353C51.8643 5.9353 57.4487 11.5817 57.4487 18.5221C57.4491 25.4626 51.8643 31.1092 45.0002 31.1092ZM45.0002 10.8564C40.8198 10.8564 37.419 14.2952 37.419 18.5219C37.419 22.7486 40.82 26.1876 45.0002 26.1876C49.1805 26.1876 52.5815 22.7486 52.5815 18.5219C52.5815 14.2952 49.1807 10.8564 45.0002 10.8564Z" fill="#2E58FF"/>
<path d="M87.5662 85.066H65.2061C63.8623 85.066 62.7725 83.9641 62.7725 82.6053V79.3156C62.7725 71.7256 68.8796 65.5508 76.3862 65.5508C77.73 65.5508 78.8199 66.6527 78.8199 68.0115C78.8199 69.3703 77.73 70.4722 76.3862 70.4722C71.5635 70.4722 67.6397 74.4393 67.6397 79.3156V80.1445H85.1325V79.3156C85.1325 78.5936 85.0464 77.8758 84.8769 77.1824C84.5542 75.8633 85.3503 74.5294 86.6551 74.2031C87.9589 73.8762 89.279 74.6817 89.6017 76.0014C89.8658 77.0809 89.9997 78.196 89.9997 79.3159V82.6056C89.9999 83.9644 88.9104 85.066 87.5662 85.066Z" fill="#2E58FF"/>
<path d="M76.3824 70.4729C70.3855 70.4729 65.5068 65.5397 65.5068 59.4762C65.5068 53.4126 70.3858 48.4797 76.3824 48.4797C82.379 48.4797 87.258 53.4129 87.258 59.4762C87.2583 65.5399 82.3794 70.4729 76.3824 70.4729ZM76.3824 53.4008C73.0693 53.4008 70.374 56.1261 70.374 59.476C70.374 62.8259 73.0693 65.5513 76.3824 65.5513C79.6955 65.5513 82.3908 62.8259 82.3908 59.476C82.3908 56.1261 79.6957 53.4008 76.3824 53.4008Z" fill="#2E58FF"/>
<path d="M24.7938 85.0658H2.43369C1.08984 85.0658 0 83.9641 0 82.6053V79.3156C0 71.7256 6.10717 65.5508 13.6136 65.5508C14.9574 65.5508 16.0472 66.6527 16.0472 68.0115C16.0472 69.3703 14.9574 70.4722 13.6136 70.4722C8.79082 70.4722 4.86738 74.4393 4.86738 79.3156V80.1445H22.3603V79.3156C22.3603 78.5936 22.2741 77.8758 22.1045 77.1824C21.7821 75.8633 22.578 74.5294 23.883 74.2031C25.1868 73.8762 26.5069 74.6817 26.8297 76.0014C27.0937 77.0809 27.2276 78.196 27.2276 79.316V82.6056C27.2275 83.9642 26.1376 85.0658 24.7938 85.0658Z" fill="#2E58FF"/>
<path d="M13.61 70.4729C7.61301 70.4729 2.73438 65.5397 2.73438 59.4762C2.73438 53.4126 7.61336 48.4797 13.61 48.4797C19.6066 48.4797 24.4856 53.4129 24.4856 59.4762C24.4856 65.5399 19.6066 70.4729 13.61 70.4729ZM13.61 53.4008C10.2968 53.4008 7.60158 56.1261 7.60158 59.476C7.60158 62.8259 10.2968 65.5513 13.61 65.5513C16.9231 65.5513 19.6183 62.8259 19.6183 59.476C19.6183 56.1261 16.9231 53.4008 13.61 53.4008Z" fill="#2E58FF"/>
<path d="M45.0001 69.4183C43.6562 69.4183 42.5664 68.3163 42.5664 66.9576V54.4234C42.5664 53.0646 43.6562 51.9626 45.0001 51.9626C46.3439 51.9626 47.4338 53.0646 47.4338 54.4234V66.9576C47.4338 68.3165 46.3441 69.4183 45.0001 69.4183Z" fill="#2E58FF"/>
<path d="M61.4227 69.4175H28.5772C27.2334 69.4175 26.1436 68.3156 26.1436 66.9568C26.1436 65.598 27.2334 64.4961 28.5772 64.4961H61.4227C62.7665 64.4961 63.8564 65.598 63.8564 66.9568C63.8564 68.3156 62.7665 69.4175 61.4227 69.4175Z" fill="#2E58FF"/>
</svg>
